<svg width="80" height="70" xmlns="http://www.w3.org/2000/svg">
    <circle cx="5" cy="5" r="0.5416666666666666" fill="white" />
<circle cx="15" cy="5" r="1.625" fill="white" />
<circle cx="25" cy="5" r="2.7083333333333335" fill="white" />
<circle cx="35" cy="5" r="3.791666666666667" fill="white" />
<circle cx="45" cy="5" r="4.875" fill="white" />
<circle cx="55" cy="5" r="5.958333333333333" fill="white" />
<circle cx="65" cy="5" r="7.041666666666666" fill="white" />
<circle cx="75" cy="5" r="8" fill="white" />
<circle cx="10" cy="15" r="1.0833333333333333" fill="white" />
<circle cx="20" cy="15" r="2.1666666666666665" fill="white" />
<circle cx="30" cy="15" r="3.25" fill="white" />
<circle cx="40" cy="15" r="4.333333333333333" fill="white" />
<circle cx="50" cy="15" r="5.416666666666667" fill="white" />
<circle cx="60" cy="15" r="6.5" fill="white" />
<circle cx="70" cy="15" r="7.583333333333334" fill="white" />
<circle cx="80" cy="15" r="8" fill="white" />
<circle cx="5" cy="25" r="0.5416666666666666" fill="white" />
<circle cx="15" cy="25" r="1.625" fill="white" />
<circle cx="25" cy="25" r="2.7083333333333335" fill="white" />
<circle cx="35" cy="25" r="3.791666666666667" fill="white" />
<circle cx="45" cy="25" r="4.875" fill="white" />
<circle cx="55" cy="25" r="5.958333333333333" fill="white" />
<circle cx="65" cy="25" r="7.041666666666666" fill="white" />
<circle cx="75" cy="25" r="8" fill="white" />
<circle cx="10" cy="35" r="1.0833333333333333" fill="white" />
<circle cx="20" cy="35" r="2.1666666666666665" fill="white" />
<circle cx="30" cy="35" r="3.25" fill="white" />
<circle cx="40" cy="35" r="4.333333333333333" fill="white" />
<circle cx="50" cy="35" r="5.416666666666667" fill="white" />
<circle cx="60" cy="35" r="6.5" fill="white" />
<circle cx="70" cy="35" r="7.583333333333334" fill="white" />
<circle cx="80" cy="35" r="8" fill="white" />
<circle cx="5" cy="45" r="0.5416666666666666" fill="white" />
<circle cx="15" cy="45" r="1.625" fill="white" />
<circle cx="25" cy="45" r="2.7083333333333335" fill="white" />
<circle cx="35" cy="45" r="3.791666666666667" fill="white" />
<circle cx="45" cy="45" r="4.875" fill="white" />
<circle cx="55" cy="45" r="5.958333333333333" fill="white" />
<circle cx="65" cy="45" r="7.041666666666666" fill="white" />
<circle cx="75" cy="45" r="8" fill="white" />
<circle cx="10" cy="55" r="1.0833333333333333" fill="white" />
<circle cx="20" cy="55" r="2.1666666666666665" fill="white" />
<circle cx="30" cy="55" r="3.25" fill="white" />
<circle cx="40" cy="55" r="4.333333333333333" fill="white" />
<circle cx="50" cy="55" r="5.416666666666667" fill="white" />
<circle cx="60" cy="55" r="6.5" fill="white" />
<circle cx="70" cy="55" r="7.583333333333334" fill="white" />
<circle cx="80" cy="55" r="8" fill="white" />
<circle cx="5" cy="65" r="0.5416666666666666" fill="white" />
<circle cx="15" cy="65" r="1.625" fill="white" />
<circle cx="25" cy="65" r="2.7083333333333335" fill="white" />
<circle cx="35" cy="65" r="3.791666666666667" fill="white" />
<circle cx="45" cy="65" r="4.875" fill="white" />
<circle cx="55" cy="65" r="5.958333333333333" fill="white" />
<circle cx="65" cy="65" r="7.041666666666666" fill="white" />
<circle cx="75" cy="65" r="8" fill="white" />
<circle cx="10" cy="75" r="1.0833333333333333" fill="white" />
<circle cx="20" cy="75" r="2.1666666666666665" fill="white" />
<circle cx="30" cy="75" r="3.25" fill="white" />
<circle cx="40" cy="75" r="4.333333333333333" fill="white" />
<circle cx="50" cy="75" r="5.416666666666667" fill="white" />
<circle cx="60" cy="75" r="6.5" fill="white" />
<circle cx="70" cy="75" r="7.583333333333334" fill="white" />
<circle cx="80" cy="75" r="8" fill="white" />
    <rect x="65" y="0" width="15" height="70" fill="white" />
</svg>