<svg xmlns="http://www.w3.org/2000/svg" width="1219" height="1219"><path fill="none" d="M0 0h1219v1219H0z" id="svg-layer-0" style="pointer-events: all; fill: none;"/><path fill="#000302" d="M401 104.352c6.452 2.092 9.874 6.995 12.956 12.806 8.488 17.01 15.318 34.729 21.34 52.738 1.025 3.067 2.064 6.13 3.104 9.192 3.464 10.236 6.797 20.474 9.6 30.912l3.125-2.437C477.668 187.748 477.668 187.748 491 187c2.191.46 2.191.46 4 2a77 77 0 0 1 3.938 7.625l1.051 2.298c3.354 7.52 5.85 15.143 8.011 23.077l.969 3.129c5.165 19.107 3.187 40.295-2.969 58.871l-.843 2.626c-2.841 8.783-5.774 17.47-10.212 25.597C494 314 494 314 493 317l2.02-.219 2.793-.281 2.707-.281c4.828-.304 9.644-.258 14.48-.219l.38-1.914a6005 6005 0 0 1 3.194-15.977q1.374-6.822 2.696-13.656c4.74-24.161 12.002-39.841 32.892-54.04 3.1-2.075 6.217-4.122 9.338-6.163q3.736-2.458 7.469-4.922l1.932-1.274c11.04-7.301 21.933-14.825 32.77-22.424 3.426-2.395 6.863-4.772 10.303-7.146a692 692 0 0 0 5.225-3.662 682 682 0 0 1 7.742-5.373l2.315-1.666c5.555-3.75 10.074-4.855 16.744-3.783 8.686 3.352 13.274 11.106 17.75 18.813l1.879 3.119a659 659 0 0 1 3.635 6.122c2.136 3.625 4.352 7.198 6.58 10.766 2.204 4.159 2.767 8.09 1.426 12.68-1.487 2.927-2.97 4.216-5.582 6.188l-2.739 2.097L668 236q-3.001 2.31-6 4.625l-3.316 2.543c-9.718 7.46-19.372 15.003-28.996 22.582-7.98 6.281-16.036 12.461-24.106 18.625l-2.301 1.758-4.458 3.402a661 661 0 0 0-4.033 3.102c-1.526 1.162-3.099 2.26-4.68 3.343-2.77 2.652-3.152 4.722-3.86 8.457l-.672 3.372L585 311a1752 1752 0 0 1-1 5l2.61-.02q12.204-.09 24.408-.135c4.182-.016 8.364-.037 12.547-.071q6.06-.048 12.118-.059 2.307-.008 4.613-.032a650719920935093 650719920935093 0 0 0 10.205-.044c6.755.697 11.698 3.67 16.499 8.361 3.974 6.03 4.643 12.59 3.254 19.574-1.236 5.832-3.159 11.37-5.129 16.988-8.064 23.694-11.728 47.161-11.562 72.188l.007 2.893c.058 15.146 1.106 29.54 4.43 44.357q.46 2.267.91 4.535c3.671 17.663 10.277 34.235 17.52 50.687 4.31 9.787 8.47 19.53 11.57 29.778l.653 2.151c3.218 10.841 5.334 21.749 7.004 32.93l.448 2.946.38 2.617c.522 2.387 1.327 4.23 2.515 6.356l3.729.012c4.592.022 9.184.077 13.776.14q2.973.036 5.947.044c2.86.009 5.72.05 8.58.097l2.658-.012c6.206.145 10.534 1.674 15.31 5.719 2.957 4.328 3.635 8.687 4.125 13.813l.236 2.204c.815 7.976 1.258 15.977 1.639 23.983 6.45-5.272 6.45-5.272 8.938-8.562 3.683-4.354 8.363-7.405 14-8.563 10.048-.644 21.532 4.642 30.57 8.523 4.17 1.007 7.66.686 11.403-1.528 2.09-1.516 4.092-3.108 6.089-4.745q2.243-1.778 4.488-3.55l2.272-1.812c3.417-2.69 6.914-5.263 10.428-7.826l1.814-1.333A537 537 0 0 1 850 625l3.082-2.223c5.218-3.178 11.066-4.169 17.106-3.34 4.138 2.3 7.369 5.338 10.812 8.563q2.587 2.382 5.188 4.75l2.417 2.234c2.487 2.094 4.412 3.7 7.395 5.016 2.592-.604 4.539-1.265 6.926-2.34l2.016-.844a472 472 0 0 0 6.37-2.754q2.075-.886 4.15-1.767c.685-.29 1.37-.58 2.074-.88l2.077-.88 2.086-.886c4.926-2.087 9.863-4.138 14.844-6.09.631-.26 1.263-.518 1.914-.785 5.724-2.198 10.858-2.67 16.73-.712 3.662 2.523 5.418 5.205 7.813 8.938a197 197 0 0 0 11.918-12.633c2.642-3.004 5.36-5.934 8.082-8.867 10.834-11.69 10.834-11.69 15.313-17.5l1.687-2h2l.814-1.777c2.005-3.758 4.942-6.667 7.811-9.785l1.793-2.038c4.679-5.088 8.908-7.913 15.98-8.65 13.022 1.647 22.44 9.96 30.54 19.813 4.8 6.52 6.833 12.342 6.062 20.437-2.832 9.496-10.754 14.706-18.176 20.68-2.682 2.203-5.26 4.48-7.824 6.82-5.171 4.706-10.57 9.097-16 13.5a1435 1435 0 0 0-6.625 5.438l-3.04 2.496C1011 659 1011 659 1010 661l1.813.813c3.498 1.899 4.92 3.387 6.187 7.187.112 1.335.176 2.674.205 4.012l.06 2.427.051 2.604.063 2.678q.098 4.233.183 8.466l.131 5.74q.16 7.037.307 14.073l3.173 1.583c16.358 8.167 16.358 8.167 22.14 11.167l2.162 1.09c6.77 3.528 6.77 3.528 8.525 7.16.337 4.43-.184 7.062-2.422 10.879l-1.592 2.761-1.736 2.923-1.768 3.047a1551 1551 0 0 1-3.66 6.274c-2.812 4.809-5.564 9.651-8.322 14.491l-2.844 4.96-1.324 2.34a229 229 0 0 1-2.82 4.783l-1.418 2.394-1.291 2.127c-1.003 2.524-.68 3.486.197 6.021a111 111 0 0 0 5.934 6.156l1.797 1.77c1.895 1.866 3.8 3.72 5.707 5.574a1775 1775 0 0 1 5.695 5.574 554 554 0 0 0 3.55 3.459c3.816 3.746 6.032 6.105 6.674 11.429-.442 3.759-1.46 4.944-4.068 7.647l-2.491 2.608c-5.638 5.608-11.325 11.173-17.114 16.626a410 410 0 0 0-4.848 4.673l-2.89 2.758C1022 864 1022 864 1022.076 867.12c.784 2.442 1.5 4.312 2.894 6.439.2.313.2.313 1.219 1.896l1.312 1.982q1.358 2.12 2.715 4.243l1.398 2.167a647 647 0 0 1 6.45 10.216l1.156 1.8c2.478 4.032 3.688 7.392 3.781 12.137-.984 3.037-2.058 4.447-4.817 6.068-2.404 1.138-4.835 2.14-7.308 3.12l-2.753 1.134A1062 1062 0 0 1 1019 922l-6.95 2.805A3041 3041 0 0 1 994 932l.092 2.484q.4 10.89.727 21.783.173 5.669.423 11.335.069 2.23.133 4.46l.148 3.786C995 979 995 979 993.102 981.87c-4.409 3.026-7.836 2.997-13.102 3.129q-2.184.077-4.368.157c-5.085.172-10.17.29-15.257.405l-5.355.131q-6.51.16-13.02.307c-3.227 8.165-6.445 16.314-9.293 24.621l-1.174 3.391a575 575 0 0 0-2.248 6.658c-1.439 4.157-2.738 7.62-5.433 11.12-9.573 4.064-22.06-2.681-31.227-5.915q-4.85-1.708-9.71-3.383l-2.23-.801c-3.644-1.256-6.036-2.058-9.685-.691a74 74 0 0 0-4.875 5.938l-2.902 3.8-1.562 2.07c-3.002 3.963-6.052 7.888-9.098 11.817l-1.791 2.332A452 452 0 0 1 846 1053l-1.91 2.523c-2.613 1.846-4.79 2.11-7.962 1.935-3.98-.857-6.833-3.19-10.003-5.646l-2.174-1.606a588 588 0 0 1-4.568-3.413 711 711 0 0 0-9.901-7.286 722 722 0 0 1-4.769-3.492l-2.178-1.593-1.925-1.42C799 1032 799 1032 797 1032c-1.453 1.59-1.453 1.59-3.25 3.938l-2.133 2.718-1.227 1.57a1030 1030 0 0 1-8.515 10.711l-1.774 2.26c-3.258 4.027-5.964 7.284-11.101 8.803-5.383-.882-9.234-4.107-13.437-7.375l-2.085-1.591c-5.629-4.318-11.18-8.735-16.693-13.2-7.258-5.876-7.258-5.876-10.163-5.643-2.9.895-5.03 2.1-7.571 3.758l-2.822 1.822-2.917 1.917c-11.432 7.431-11.432 7.431-16.78 10.726l-2.37 1.463c-3.293 1.71-5.557 1.9-9.162 1.123-3.675-3.118-5.824-6.264-7.98-10.47-4.108-7.92-7.707-11.472-16.102-14.842-4.299-1.013-4.299-1.013-6.918.312a96 96 0 0 0-5.687 5.938A1004.1 1004.1 0 0 0 642 1043a2970 2970 0 0 1-9.001 9.999l-1.488 1.656c-3.834 4.083-6.855 5.184-12.387 5.719-4.598-.095-7.291-1.942-11.125-4.375-2.125-1-2.125-1-4-1a105 105 0 0 0-5 4c-2.715.89-5.187 1.126-8.033 1.131l-2.418.012-2.639-.003-2.816.01q-4.684.01-9.367.011l-6.706.015q-9.118.019-18.236.024l-11.39.012q-15.771.019-31.543.026h-4.082l-4.1.002h-2.053q-16.473.009-32.945.046-16.918.035-33.837.037-9.495 0-18.992.025-8.933.023-17.865.01-3.277-.002-6.556.013c-2.984.013-5.967.007-8.951-.004l-2.619.025c-6.08-.05-10.933-1-15.778-4.97-5.176-6.24-6.377-11.686-5.949-19.7 1.793-5.579 5.423-10.168 10.492-13.128a172 172 0 0 1 4.258-2.094l2.41-1.209a670 670 0 0 1 5.506-2.72c3.669-1.796 7.322-3.62 10.975-5.45l4.144-2.075 2.103-1.052q3.165-1.582 6.331-3.158c7.842-3.905 15.648-7.86 23.362-12.014 4.955-2.668 9.98-5.137 15.071-7.533C439 984 439 984 441 981c.319-2.36.319-2.36.414-5.105l.117-2.979.094-3.104.117-3.138q.141-3.837.258-7.674l-3.55-.734c-23.954-5.057-23.954-5.057-28.575-10.328-3.916-6.136-3.593-12.303-2.215-19.28.896-3.651 1.851-7.28 2.84-10.908q.995-3.693 1.969-7.39l.888-3.267c.661-3.182.96-5.857.643-9.093-2.222-1.957-4.116-3.325-6.625-4.812l-2.039-1.287A464 464 0 0 0 399 888c-18.43-11.29-18.43-11.29-21-19-.941-11.109 5.939-19.282 11.688-28.312q2.04-3.21 4.074-6.426c.597-.94 1.195-1.878 1.811-2.845C397 829 397 829 398 826l-2.867-1.398A894 894 0 0 1 382 818l-2.218-1.135C362.385 807.858 347.157 796.492 333 783a447 447 0 0 0-4.125-3.5C292.942 748.17 270.467 696.73 266 650l-.22-2.076c-.22-2.14-.411-4.28-.592-6.424l-.333-3.844c.208-5.245 1.719-8.962 5.145-13.031 3.75-3.047 7.326-3.021 12-2.625 3.92 2.111 6.683 4.204 9 8 .628 3.074.628 3.074.992 6.688l.439 4.026.218 2.12c2.767 26.49 9.628 50.693 22.351 74.166l1.71 3.168c6.22 11.05 13.54 21.303 22.188 30.578 2.59 2.778 5.044 5.662 7.497 8.563C348 761 348 761 350.199 762.598L352 764v2l1.797.816c2.203 1.184 3.653 2.401 5.453 4.121C397.131 804.626 448.458 816.86 498 814c21.82-1.667 43.272-7.564 63-17l1.948-.908c16.463-7.714 31.85-17.896 45.056-30.404C610 764 610 764 612 764v-2a263 263 0 0 1 5-4l1-2h2l.758-1.742c1.413-2.57 3.066-4.287 5.117-6.383 6.125-6.679 10.942-14.181 15.805-21.807a401 401 0 0 1 3.289-5.052c24.45-38.982 30.613-89.94 20.67-134.32C662.735 574.435 659.268 562.47 654 551c-11.614-25.853-20.229-50.943-25-79l-.57-3.255c-1.843-11.838-1.827-23.664-1.805-35.62l.002-3.305c.036-16 .694-31.193 4.373-46.82l1.46-6.648c2.077-9.172 4.27-18.085 7.673-26.866C641 347 641 347 642 342h-63l-2 14q-.598 3.781-1.237 7.556l-.667 3.94-.698 4.09-.73 4.312q-.951 5.598-1.905 11.195-.976 5.742-1.95 11.485Q567.909 409.79 566 421l3.691-.105q2.436-.043 4.871-.082l2.424-.077c6.819-.083 11.52 1.053 16.764 5.702 6.89 7.847 7.61 14.78 8.25 25 .589 8.57 1.31 17.02 2.633 25.511.747 6.211.822 10.69-2.633 16.051l-2.75 1.813c-2.25 2.187-2.25 2.187-2.312 6 1.178 6.823 3.126 13.546 5.062 20.187l.828 3.355C604 527 604 527 606.207 528.102l2.606.523c5.316 1.318 8.6 2.952 11.68 7.652 1.528 2.76 2.621 5.446 3.694 8.41a189 189 0 0 0 5.716 13.64c17.61 38.063 20.634 82.853 6.417 122.546-8.4 22.43-20.565 41.99-37.32 59.127l-2.195 2.348C566.745 773.795 523.794 789.008 481 790c-45.7-.25-86.131-18.837-118.625-50.312-29.635-30.366-45.862-71.734-45.677-114.106.56-25.978 6.884-50.41 18.24-73.707 4.292-9.024 7.12-18.634 10.17-28.133.798-2.452 1.631-4.887 2.474-7.324 1.63-4.88 2.797-9.837 3.918-14.856l.656-2.885c1.526-6.854 2.79-13.723 3.68-20.69.946-6.595 3.246-13.082 8.601-17.362l1.684-1.398c8.664-5.656 19.242-3.203 28.879-1.727 24.552 3.414 48.173 1.43 71.377-7.576 2.69-.948 5.362-1.608 8.139-2.256 5.651-1.55 10.518-3.18 14.484-7.668 4.057-8.78 5.204-18.605 6.468-28.115.686-5.008 1.658-9.933 2.657-14.885q.46-2.468.914-4.937c1.234-6.608 2.632-13.181 4.036-19.754 2.134-10.079 3.996-20.18 5.925-30.309H316l8 25c3.538 13.603 6.34 27.054 8 41l.29 2.373c.972 9.082.953 18.191.96 27.315l.003 2.616c-.011 14.091-.756 27.8-3.253 41.696l-.422 2.443C326.216 503.451 320.736 522.317 313 540q-2.225 5.091-4.437 10.188l-1.165 2.668c-3.054 7.098-5.662 14.3-8.015 21.66-1.769 5.365-3.605 9.786-8.633 12.859-4.45 1.011-8.543.881-12.527-1.387-3.308-2.563-5.385-4.892-6.223-8.988.407-7.464 2.4-13.774 5-20.75l1.212-3.317c2.592-6.994 5.41-13.857 8.413-20.683 7.537-17.193 12.89-34.804 16.375-53.25l.5-2.627c4.246-23.443 7.146-57.435-.5-80.373-1.88-.734-3.764-1.456-5.672-2.11-4.173-1.595-7.925-3.942-11.765-6.202l-5.598-3.243-2.95-1.71c-5.104-2.937-10.247-5.803-15.39-8.673a3586 3586 0 0 1-21.089-11.857c-20.859-11.83-41.786-23.478-63.171-34.333l-3.455-1.763c-.999-.505-1.998-1.01-3.027-1.532-6.241-3.414-9.708-5.57-11.883-12.577-.665-5.451 1.15-8.39 4.375-12.562l1.37-1.84A546 546 0 0 1 169 292q1.253-1.654 2.504-3.309a750 750 0 0 1 6.203-8.03 841 841 0 0 0 3.98-5.165c6.064-7.874 12.429-15.328 19.313-22.496l1.473-1.54A208 208 0 0 1 224 232q1.569-1.287 3.133-2.578C261.978 200.927 310.369 177.142 356 176l.513-1.838c1.796-6.227 3.975-12.155 6.55-18.1l1.181-2.734c22.237-50.621 22.237-50.621 36.756-48.976" id="svg-layer-1" style="pointer-events: all;"/><path fill="#000201" d="M864.435 638.198c2.874.898 4.177 1.904 6.307 4.005l2.043 1.973 2.09 2.074A355 355 0 0 0 883 654l1.751 1.635c3.075 2.562 5.314 3.738 9.366 3.502 6.308-1.139 12.145-3.82 18.008-6.324l7.2-3L926 647q4.46-1.862 8.938-3.687l3.34-1.387C941 641 941 641 945 641l.152 2.168c.234 3.278.478 6.555.723 9.832l.238 3.41c.46 6.055.94 11.817 2.887 17.59 3.103 2.069 3.85 2.258 7.38 2.319l2.668.06 2.87.035 2.947.059c3.107.06 6.215.106 9.322.152q3.16.057 6.319.117 7.747.142 15.494.258c-1.28 3.388-2.743 6.446-4.61 9.547l-1.538 2.562-1.602 2.641-1.555 2.594c-3.017 5.004-6.15 9.89-9.486 14.687-1.894 3.085-2.413 5.369-2.209 8.969 3.344 4.583 7.117 7.916 11.625 11.313q1.853 1.425 3.703 2.851l1.858 1.427c4.346 3.376 8.572 6.903 12.814 10.409-1.387 3.315-2.796 4.854-5.79 6.813l-2.332 1.553-2.503 1.634c-6.614 4.418-13.133 8.918-19.5 13.688l-2.061 1.529c-5.542 4.176-5.542 4.176-6.31 8.713.087 5.881 4.239 10.531 7.433 15.195a957 957 0 0 1 3.903 5.82l1.761 2.579c1.436 2.541 2 4.602 2.399 7.476-6.355 4.09-12.895 7.697-19.562 11.25-7.18 3.857-14.325 7.743-21.313 11.938l-1.834 1.096c-2.35 1.43-4.338 2.763-6.291 4.716-1.587 11.765 1.32 24.378 3 36-5.54 2.5-11.15 4.406-16.95 6.215l-5.755 1.83q-4.5 1.428-9.006 2.837c-2.917.912-5.828 1.84-8.738 2.77l-2.721.837c-4.508 1.454-7.886 2.582-10.83 6.511-1.273 3.004-1.273 3.004-2.375 6.563l-.612 1.934c-.683 2.164-1.348 4.333-2.013 6.503q-1.216 3.898-2.44 7.793a1033 1033 0 0 0-1.593 5.123C871.11 928.89 871.11 928.89 870 930a87 87 0 0 1-4.793.465l-3.07.232-3.324.24-6.84.54c-4.45.342-8.898.647-13.352.921l-5.871.414-2.755.139c-4.273.321-6.418.6-9.874 3.287-2.046 2.664-3.987 5.315-5.808 8.137l-2.043 3.133-1.092 1.684c-2.197 3.372-4.442 6.712-6.678 10.058l-2.594 3.89L800 966c-7.434-.192-14.33-1.752-21.5-3.562-16.807-4.053-16.807-4.053-21.5-2.438-4.159 2.836-7.763 6.048-11.402 9.512-2.436 2.269-5.006 4.335-7.598 6.426l-2.562 2.09c-2.472 2-4.953 3.988-7.438 5.972-4.652-1.586-8.364-4.112-12.375-6.875a435 435 0 0 0-5.753-3.886 133 133 0 0 1-3.627-2.486c-3.622-2.39-6.5-3.353-10.813-2.531-5.821 1.863-11.272 4.71-16.745 7.403-1.91.937-3.82 1.871-5.737 2.793-1.727.83-3.447 1.673-5.166 2.518C665 982 665 982 662 981c-1.195-1.81-1.195-1.81-2.34-4.148l-1.283-2.547-2.617-5.336-1.287-2.555-1.149-2.345c-1.527-2.386-2.89-3.627-5.324-5.069-6.511-1.195-13.448.663-19.812 2q-2.76.567-5.52 1.125l-2.429.508C618 963 618 963 614 963l-.044-1.94c-.075-2.917-.171-5.832-.269-8.747l-.068-3.053c-.357-9.845-.357-9.845-3.619-13.26-5.324-2.67-11.522-2.664-17.375-3.125l-3.098-.262q-3.762-.315-7.527-.613c.704-5.783 2.731-10.683 5.004-15.99 1.88-4.694 2.37-7.968.996-13.01-2.038-2.457-4.131-3.722-7.012-5.043l-2.295-1.064-2.38-1.08-2.417-1.116A1320 1320 0 0 0 568 892c0-4.63.603-5.181 3.5-8.562l2.188-2.645L576 878q2.283-2.85 4.5-5.75l2.031-2.61c1.806-3.245 2.015-4.974 1.469-8.64-1.574-2.781-1.574-2.781-3.687-5.5l-2.2-2.863c-2.335-2.914-4.67-5.812-7.113-8.637 1.543-4.609 5.258-6.652 9.063-9.312l4.078-2.93 2.002-1.429a348 348 0 0 0 7.17-5.266l2.05-1.528c1.909-1.79 2.805-3.048 3.637-5.535a139 139 0 0 0-.75-5.625c-.07-3.21-.07-3.21.75-6.375 3.682-3.64 7.784-6.202 12.196-8.873 9.676-6.048 19.23-14.522 26.355-23.424C639 772 639 772 641.375 769.633c9.313-9.341 18.19-20.63 24.04-32.504C667 735 667 735 669.714 734.305l3.222-.43c8.015-2.19 10.684-7.23 14.73-14.158q1.464-2.577 2.9-5.168c2.222-3.953 4.64-7.777 7.058-11.611l1.255-2.037c1.565-2.53 3.008-4.79 5.12-6.901 1.993-.151 1.993-.151 4.445-.012l2.742.142 2.938.183c.987.05 1.975.102 2.992.155 4.57.244 9.13.538 13.688.934l2.167.177c1.907.16 3.811.345 5.716.53 3.881-.128 6.049-1.041 9.312-3.109l2-3h2l.738-1.734c1.487-2.67 3.243-4.404 5.45-6.516 4.806-4.699 9.231-9.622 13.507-14.805l1.617-1.945 1.426-1.75C776 662 776 662 778 662v-2c4.004-1.595 6.739-.318 10.672 1.09l3.953 1.377q3.09 1.098 6.174 2.206a798 798 0 0 0 5.998 2.104l3.604 1.29c4.848 1.257 9.535 1.978 14.154-.36l2.32-1.894 2.813-2.208 1.566-1.248c3.458-2.688 7.055-5.19 10.621-7.732 4.407-3.15 8.785-6.309 12.996-9.719l1.776-1.428a469 469 0 0 0 4.654-3.845C862 638 862 638 864.435 638.198" id="svg-layer-2" style="pointer-events: all;"/><path fill="#CE2725" d="M575 446c1.19 2.38 1.153 4.38 1.24 7.003.287 8.327 1.243 16.515 2.51 24.747l.439 3.137c.98 6.032 1.902 9.344 6.811 13.113l1 1c1.682.233 3.371.413 5.063.563l2.785.253L597 496l-.148 2.934c.002 4.614 1.218 8.733 2.523 13.128l.672 2.354q.652 2.264 1.335 4.52c.549 1.834 1.04 3.684 1.524 5.537C604 527 604 527 605.946 528.023l2.179.352L612 529v1l-1.793.297c-5.055.957-8.455 1.95-12.207 5.703-2.144 4.288-1.431 8.574-.094 12.996 2.515 6.713 5.527 13.057 8.957 19.348 1.196 2.793 1.37 4.654 1.137 7.656h2c10.674 27.38 13.122 59.558 5 88l-.567 2.053C609.057 685.044 598.695 702.033 586 717l-1.773 2.145c-23.271 27.535-57.476 40.846-92.301 45.425-2.926.43-2.926.43-4.863.961-20.46 4.65-44.169-4.525-63.063-11.531l-2.566-.945c-5.346-2.042-10.071-4.418-14.809-7.617l-1.785-1.17c-6.541-4.315-6.541-4.315-8.84-6.268v-2h-3c-1.203-1.123-2.396-2.26-3.523-3.458-1.625-1.697-3.33-3.269-5.07-4.847l-1.934-1.77a817 817 0 0 0-3.946-3.577c-4.144-3.81-7.49-7.595-10.527-12.348v-2l-1.75-.574c-3.21-2.034-4.53-4.963-6.25-8.239-1.86-3.477-3.623-6.72-6.105-9.8-5.779-7.28-7.891-18.243-10.645-27.012l-.927-2.888c-6.867-22.406-3.405-45.462 3.115-67.424l.873-2.945c1.511-4.905 3.214-9.414 5.607-13.949 2.359-4.728 4.199-9.698 6.144-14.606l1.315-3.276c2.138-5.365 4.166-10.73 5.94-16.227.68-2.054 1.435-4.065 2.214-6.083 1.569-4.14 2.825-8.327 3.969-12.602l.654-2.438c1.889-7.411 2.952-14.865 3.77-22.463 1.343-11.741 1.343-11.741 5.076-15.474 1.613-.1 3.231-.13 4.848-.133l3.025-.004 3.19.012 3.107-.012c4.353.006 8.634.03 12.951.625 20.968 2.766 39.341-1.725 58.371-10.422 4.187-1.78 8.488-3.234 12.785-4.722a192 192 0 0 0 8.282-3.223c6.398-2.58 12.97-4.554 19.566-6.558l7.785-2.375 3.735-1.141a253 253 0 0 0 8.101-2.672c15.628-5.428 31.862-5.757 48.254-5.375" id="svg-layer-3" style="pointer-events: all;"/><path fill="#DDE9FC" d="M316 342h193c0 5.017-.12 8.408-1.172 13.105l-.757 3.445-.821 3.637-1.68 7.649-.827 3.753a625 625 0 0 0-2.618 12.724 5885 5885 0 0 1-5.705 28.434q-.542 2.676-1.08 5.353a2666 2666 0 0 1-1.535 7.584l-.46 2.314c-2.067 10.054-2.067 10.054-5.075 12.285l-2.102.928-2.386 1.074-2.594 1.09-2.704 1.165c-28.065 11.85-55.097 16.154-85.306 11.528-19.2-2.884-19.2-2.884-27.178 2.932-7.46 6.962-8.361 17.2-9.875 26.875-1.284 7.766-2.775 15.426-4.687 23.063-.1.398-.1.398-.6 2.415a111 111 0 0 1-4.068 12.657 220 220 0 0 0-2.243 6.119c-2.811 7.868-5.79 15.581-9.235 23.197-19.012 42.127-21.809 87.126-5.476 130.611 15.734 40.038 46.94 71.505 85.899 89.258 40.609 17.647 86.716 18.033 127.848 2.07C561.94 769.396 578.535 757.943 594 744l1.522-1.365c28.56-25.985 45.856-65.228 48.353-103.51 1.334-33.351-5.813-62.894-20.332-92.898a145 145 0 0 1-3.113-6.97c-1.686-3.84-3.093-5.701-6.43-8.257a122 122 0 0 0-5.062-1.187c-4.498-1.22-4.498-1.22-6.333-3.692-1.107-2.678-1.875-5.315-2.605-8.121l-1.117-3.781c-3.445-11.954-3.445-11.954-2.883-17.219a119 119 0 0 1 6-5c1.994-3.776 2.164-6.542 1.75-10.75l-.328-3.473a921 921 0 0 0-1.695-14.108c-.563-4.612-.861-9.178-1.019-13.82-.318-8.988-1.23-15.526-7.02-22.724-6.05-4.784-11.644-5.601-19.125-5.812l-2.506-.104A621 621 0 0 0 566 421c.538-9.447 1.806-18.637 3.469-27.945l.728-4.16q.756-4.315 1.523-8.627.981-5.525 1.947-11.053.748-4.275 1.503-8.55l.718-4.078q.499-2.835 1.005-5.67l.576-3.252C578 345 578 345 579 342h63c-.723 5.786-1.443 9.852-3.25 15.188a265 265 0 0 0-5.375 19l-.587 2.31c-4.232 17.74-5.335 35.45-5.226 53.627l.01 3.249c.069 16.517.815 32.45 4.428 48.626l.698 3.177c4.605 20.5 11.428 39.747 20.126 58.85C660.582 563.123 665.867 580.491 669 599l.523 2.911c7.455 48.315-7.014 98.182-35.543 137.214-3.431 4.556-7.175 8.753-11.117 12.871C621 754 621 754 620 756h-2l-.75 1.875c-1.456 2.476-2.628 3.076-5.25 4.125v2c-1.59 1.46-3.25 2.842-4.937 4.188l-3.07 2.449L601 773l-2.242 1.832c-6.028 4.856-12.479 9.021-19.044 13.101a510 510 0 0 0-4.612 2.915C535.357 815.285 483.106 821.508 438 811c-31.42-7.502-62.34-22.595-86-45v-2l-1.793-.805c-3.726-2.018-6.33-5.129-9.207-8.195l-1.621-1.71c-26.065-28.628-42.968-66.253-47.086-104.677l-.37-3.398a436 436 0 0 1-.658-6.7c-.997-9.61-.997-9.61-5.265-13.515-3.48-2.52-6.805-2.368-11-2-3.69 1.717-6.24 4.035-9 7 .543-3.802 2.157-5.501 5-8 2.709-1.354 5.01-1.065 8-1l1-2 1-1c1.845-3.69 1.032-8.357.96-12.44-.048-4.64.264-8.981 1.04-13.56l3-1-1.625-.25c-4.483-1.416-8.246-4.273-11.375-7.75l1-3 1.688 2.375c2.505 2.844 3.65 3.793 7.312 4.625 4.476.155 7.048-.223 10.594-3.117 2.731-3.273 3.706-5.87 4.906-9.946q.626-2.024 1.262-4.046l.626-2.01c1.976-6.074 4.676-11.904 7.39-17.678C319.713 524.561 327.517 497.064 331 469l.292-2.333c.992-9.177.908-18.386.896-27.604l-.003-2.64c-.05-20.9-2.249-40.082-7.185-60.423l-.54-2.232c-2.059-8.374-4.635-16.501-7.507-24.623C316 346 316 346 316 342" id="svg-layer-4" style="pointer-events: all;"/><path fill="#FCFAEA" d="M864.435 638.198c2.874.898 4.177 1.904 6.307 4.005l2.043 1.973 2.09 2.074A355 355 0 0 0 883 654l1.751 1.635c3.075 2.562 5.314 3.738 9.366 3.502 6.308-1.139 12.145-3.82 18.008-6.324l7.2-3L926 647q4.46-1.862 8.938-3.687l3.34-1.387C941 641 941 641 945 641l.152 2.168c.234 3.278.478 6.555.723 9.832l.238 3.41c.46 6.055.94 11.817 2.887 17.59 3.103 2.069 3.85 2.258 7.38 2.319l2.668.06 2.87.035 2.947.059c3.107.06 6.215.106 9.322.152q3.16.057 6.319.117 7.747.142 15.494.258c-1.28 3.388-2.743 6.446-4.61 9.547l-1.538 2.562-1.602 2.641-1.555 2.594c-3.017 5.004-6.15 9.89-9.486 14.687-1.894 3.085-2.413 5.369-2.209 8.969 3.344 4.583 7.117 7.916 11.625 11.313q1.853 1.425 3.703 2.851l1.858 1.427c4.346 3.376 8.572 6.903 12.814 10.409-1.387 3.315-2.796 4.854-5.79 6.813l-2.332 1.553-2.503 1.634c-6.614 4.418-13.133 8.918-19.5 13.688l-2.061 1.529c-5.542 4.176-5.542 4.176-6.31 8.713.087 5.881 4.239 10.531 7.433 15.195a957 957 0 0 1 3.903 5.82l1.761 2.579c1.436 2.541 2 4.602 2.399 7.476-6.355 4.09-12.895 7.697-19.562 11.25-7.18 3.857-14.325 7.743-21.313 11.938l-1.834 1.096c-2.35 1.43-4.338 2.763-6.291 4.716-1.587 11.765 1.32 24.378 3 36-5.54 2.5-11.15 4.406-16.95 6.215l-5.755 1.83q-4.5 1.428-9.006 2.837c-2.917.912-5.828 1.84-8.738 2.77l-2.721.837c-4.508 1.454-7.886 2.582-10.83 6.511-1.273 3.004-1.273 3.004-2.375 6.563l-.612 1.934c-.683 2.164-1.348 4.333-2.013 6.503q-1.216 3.898-2.44 7.793a1033 1033 0 0 0-1.593 5.123C871.11 928.89 871.11 928.89 870 930a87 87 0 0 1-4.793.465l-3.07.232-3.324.24-6.84.54c-4.45.342-8.898.647-13.352.921l-5.871.414-2.755.139c-4.273.321-6.418.6-9.874 3.287-2.046 2.664-3.987 5.315-5.808 8.137l-2.043 3.133-1.092 1.684c-2.197 3.372-4.442 6.712-6.678 10.058l-2.594 3.89L800 966c-7.434-.192-14.33-1.752-21.5-3.562-16.807-4.053-16.807-4.053-21.5-2.438-4.159 2.836-7.763 6.048-11.402 9.512-2.436 2.269-5.006 4.335-7.598 6.426l-2.562 2.09c-2.472 2-4.953 3.988-7.438 5.972-4.652-1.586-8.364-4.112-12.375-6.875a435 435 0 0 0-5.753-3.886 133 133 0 0 1-3.627-2.486c-3.622-2.39-6.5-3.353-10.813-2.531-5.821 1.863-11.272 4.71-16.745 7.403-1.91.937-3.82 1.871-5.737 2.793-1.727.83-3.447 1.673-5.166 2.518C665 982 665 982 662 981c-1.195-1.81-1.195-1.81-2.34-4.148l-1.283-2.547-2.617-5.336-1.287-2.555-1.149-2.345c-1.527-2.386-2.89-3.627-5.324-5.069-6.511-1.195-13.448.663-19.812 2q-2.76.567-5.52 1.125l-2.429.508C618 963 618 963 614 963l-.044-1.94c-.075-2.917-.171-5.832-.269-8.747l-.068-3.053c-.357-9.845-.357-9.845-3.619-13.26-5.324-2.67-11.522-2.664-17.375-3.125l-3.098-.262q-3.762-.315-7.527-.613c.704-5.783 2.731-10.683 5.004-15.99 1.88-4.694 2.37-7.968.996-13.01-2.038-2.457-4.131-3.722-7.012-5.043l-2.295-1.064-2.38-1.08-2.417-1.116A1320 1320 0 0 0 568 892c0-4.63.603-5.181 3.5-8.562l2.188-2.645L576 878q2.283-2.85 4.5-5.75l2.031-2.61c1.806-3.245 2.015-4.974 1.469-8.64-1.574-2.781-1.574-2.781-3.687-5.5l-2.2-2.863c-2.335-2.914-4.67-5.812-7.113-8.637 1.543-4.609 5.258-6.652 9.063-9.312l4.078-2.93 2.002-1.429a348 348 0 0 0 7.17-5.266l2.05-1.528c1.909-1.79 2.805-3.048 3.637-5.535a139 139 0 0 0-.75-5.625c-.07-3.21-.07-3.21.75-6.375 3.682-3.64 7.784-6.202 12.196-8.873 9.676-6.048 19.23-14.522 26.355-23.424C639 772 639 772 641.375 769.633c9.313-9.341 18.19-20.63 24.04-32.504C667 735 667 735 669.714 734.305l3.222-.43c8.015-2.19 10.684-7.23 14.73-14.158q1.464-2.577 2.9-5.168c2.222-3.953 4.64-7.777 7.058-11.611l1.255-2.037c1.565-2.53 3.008-4.79 5.12-6.901 1.993-.151 1.993-.151 4.445-.012l2.742.142 2.938.183c.987.05 1.975.102 2.992.155 4.57.244 9.13.538 13.688.934l2.167.177c1.907.16 3.811.345 5.716.53 3.881-.128 6.049-1.041 9.312-3.109l2-3h2l.738-1.734c1.487-2.67 3.243-4.404 5.45-6.516 4.806-4.699 9.231-9.622 13.507-14.805l1.617-1.945 1.426-1.75C776 662 776 662 778 662v-2c4.004-1.595 6.739-.318 10.672 1.09l3.953 1.377q3.09 1.098 6.174 2.206a798 798 0 0 0 5.998 2.104l3.604 1.29c4.848 1.257 9.535 1.978 14.154-.36l2.32-1.894 2.813-2.208 1.566-1.248c3.458-2.688 7.055-5.19 10.621-7.732 4.407-3.15 8.785-6.309 12.996-9.719l1.776-1.428a469 469 0 0 0 4.654-3.845C862 638 862 638 864.435 638.198M755 702l-2.324 3.098c-3.105 3.367-5.754 4.255-10.051 5.277-25.305 7.03-49.283 27.558-63.312 49.5l-1.18 1.842c-3.63 5.82-5.553 11.227-6.82 17.908-1.375 3.533-2.148 4.297-4.989 6.582-4.21 3.574-7.526 7.441-10.824 11.856l-1.69 2.25c-13.668 18.5-21.47 38.48-18.314 61.8 1.717 10.815 4.436 23.783 13.504 30.887 6.347 3.586 12.79 4.693 20 5l-.14 2.055c-.341 8.787 1.197 16.03 7.14 22.758 11.662 10.475 28.644 10.76 43.464 9.986 18.57-1.34 36.962-5.753 54.536-11.799l2.063-.706c11.425-4.004 21.38-9.959 31.43-16.59a3244 3244 0 0 1 5.16-3.394c4.364-2.81 8.87-5.168 13.534-7.435 17.287-8.425 32.6-20.135 46.378-33.492a269 269 0 0 1 4.005-3.762c9.823-9.333 18.338-20.337 24.805-32.246 2.538-4.673 4.992-8.125 8.902-11.687 12.846-12.584 18.518-32.901 19.269-50.46.109-13.652-3.076-26-12.546-36.228-9.632-9.438-20.97-11.554-34-13l-.594-1.871C878.751 699.777 871.872 691.902 862 687c-12.322-5.38-24.648-7.348-38-8l-3.59-.18c-24.251-.54-47.39 6.472-65.41 23.18" id="svg-layer-5" style="pointer-events: all;"/><path fill="#85C937" d="M1011 726c4.919.618 8.847 2.753 13.188 5l2.193 1.117c1.875.956 3.747 1.92 5.619 2.883l2 1c-.564 4.096-1.866 6.664-4.187 10.063-3.2 4.859-5.813 9.816-8.356 15.042-1.766 3.509-3.758 6.83-5.805 10.18a612 612 0 0 0-5.965 10.028l-1.06 1.778c-1.892 3.265-3.324 6.119-3.627 9.909 1.438 2.688 1.438 2.688 3 5v2l3 1c1.525 1.558 1.525 1.558 3.156 3.547a113 113 0 0 0 8.063 8.594l2.133 2.054a601 601 0 0 0 4.39 4.157l2.102 2.039 1.912 1.813c1.244 1.796 1.244 1.796 1 3.715-.86 2.367-1.793 3.449-3.608 5.178l-1.81 1.75-1.963 1.86q-2.04 1.983-4.078 3.967-3.22 3.11-6.46 6.2a836 836 0 0 0-6.212 6.02l-1.963 1.842c-3.955 3.887-5.586 6.47-5.662 12.264.707 2.328.707 2.328 1.813 4.25l1.082 1.953c.998 1.622 2.048 3.212 3.105 4.797v3h2c2.165 2.905 3.879 6.114 5.688 9.25l1.587 2.645 2.86 4.907c.865 2.198.865 2.198.774 4.344-1.263 2.576-2.581 2.99-5.214 4.073l-2.692 1.13-2.878 1.151-2.907 1.204c-5.608 2.305-11.252 4.476-16.984 6.456-2.358.887-4.555 1.942-6.797 3.09C980 920 980 920 978 920c-.908 2.724-1.128 4.313-1.133 7.113l-.005 2.503.013 2.697.001 2.78c.04 8.006.403 15.986.944 23.973l.157 2.664.158 2.357C978 966 978 966 976 968c-1.846.258-1.846.258-4.11.271l-2.57.031-2.78.007-5.806.076q-4.585.044-9.17.071c-2.946.022-5.892.061-8.837.103h-2.77c-6.327.099-6.327.099-9.518 1.832-1.65 1.845-2.103 3.176-2.439 5.609h-2l-.625 3.438c-1.712 7.738-4.663 15.13-7.375 22.562l-1.281 3.543A2071 2071 0 0 1 914 1013c-9.594-.236-18.144-3.56-27.053-6.782-14.96-5.377-14.96-5.377-21.947-4.218-2.82 2.273-2.82 2.273-5.125 5.375l-1.25 1.63c-3.249 4.286-6.307 8.73-9.25 13.23L848 1024h-2l-.824 1.734c-1.195 2.304-2.498 4.392-3.989 6.516l-1.457 2.14c-1.73 1.61-1.73 1.61-4.054 2.114-3.711-.699-5.74-2.469-8.676-4.816-5.693-4.51-5.693-4.51-8.875-6.356L816 1024v-2l-2.168-.742c-4.145-1.841-7.33-4.715-10.82-7.578-3.819-2.13-6.74-2.837-11.012-1.68-2.479 1.77-4.176 3.955-6 6.375l-1.543 1.923a302 302 0 0 0-3.042 3.872c-1.949 2.52-3.968 4.983-5.977 7.455-1.732 2.183-3.377 4.276-4.84 6.648C769 1040 769 1040 766.664 1040.531c-3.71-.74-5.481-2.518-8.289-5.031q-1.588-1.39-3.184-2.77l-1.612-1.4c-3.18-2.678-6.589-5.039-9.981-7.435-3.26-2.378-6.307-4.977-9.332-7.645-3.408-1.88-5.4-1.788-9.266-1.25-3.442 1.56-6.57 3.53-9.75 5.563l-2.674 1.653a533 533 0 0 0-11.185 7.14l-2.891 1.894-2.406 1.64C694 1034 694 1034 690 1034c-1.561-2.295-1.561-2.295-3.074-5.469-9.134-17.917-9.134-17.917-14.03-20.747-4.347-1.065-8.426-.318-12.72.714-2.967.685-5.94.994-8.963 1.321-2.049.232-4.078.53-6.115.841C642 1011 642 1011 640 1010c-1.357-3.622-1.214-7.489-1.375-11.312-.388-6.925-1.05-11.82-5.812-17.125L631 980l1-3 8-1c3.19 4.682 6.225 9.372 9 14.313 2.464 4.104 4.496 6.705 9 8.687 8.868 1.376 16.42-3.132 24.117-7.113l2.139-1.1a248 248 0 0 0 4.137-2.195c4.045-2.119 7.045-3.28 11.607-2.592 2.457 1.32 2.457 1.32 4.813 3.125L710 993c5.63 4.185 10.778 7.767 18 8 7.855-1.647 13.047-6.86 19-12 2.01-1.7 4.035-3.382 6.063-5.062l2.722-2.286C758 980 758 980 760 980v-2c6.254-3.3 11.63-.786 18 1 22.023 5.555 22.023 5.555 30.188 1.125C811 978 811 978 812 976h2l.8-2.185c1.223-2.87 2.662-5.266 4.388-7.862l1.867-2.808L823 960.25l1.945-2.941 1.867-2.793 1.708-2.554C830 950 830 950 832 949c2.242-.201 4.49-.346 6.738-.465l4.178-.236q3.27-.178 6.541-.349c27.93-1.48 27.93-1.48 33.543-6.95 3.682-6.468 5.659-13.099 7.625-20.25q.89-3.197 1.79-6.39l.779-2.83c1.473-4.623 1.473-4.623 2.806-6.53 2.563-1.233 2.563-1.233 5.785-2.254 1.171-.38 2.342-.76 3.549-1.15l3.729-1.159 3.646-1.17q3.534-1.132 7.074-2.248a609 609 0 0 0 10.302-3.382 309 309 0 0 1 5.313-1.7l2.977-.937 3.023-.937c2.587-1.057 3.742-2.054 5.602-4.063h2c4.107-8.762 2.762-17.214 1.563-26.5l-.448-3.648A1543 1543 0 0 0 949 847c11.28-7.11 22.644-14.077 34.68-19.844C986 826 986 826 989 824h3v-2l1.875-.25c2.125-.75 2.125-.75 3.25-2.625L998 817l2-3c1.191-4.178.947-8.023-.942-11.966-3.179-5.645-6.702-11.24-10.882-16.198-1.579-2.465-1.5-3.95-1.176-6.836 1.43-1.602 1.43-1.602 3.445-2.98l2.246-1.576 2.434-1.631 4.945-3.43 2.51-1.714c2.245-1.548 4.459-3.13 6.662-4.74l1.933-1.409q1.794-1.31 3.583-2.624C1018.776 756 1018.776 756 1021 756c3.127-6.046 3.247-11.217 2.813-17.875-.135-.35-.135-.35-.813-2.125a88 88 0 0 0-5-2c-2.495-1.823-4.878-3.75-7-6z" id="svg-layer-6" style="pointer-events: all;"/><path fill="#FAE382" d="m348.063 193.813 3.347.019C354 194 354 194 355 195c.308 2.388.553 4.758.762 7.156l.215 2.356q.362 3.993.71 7.988l.25 2.798c.642 7.215 1.267 14.432 1.887 21.65l.56 6.503q1.272 14.75 2.509 29.5.42 4.99.846 9.977.51 5.959 1 11.92.185 2.222.377 4.444.264 3.068.51 6.137l.293 3.494c.076 2.894-.218 5.28-.919 8.077l-2.11-.013q-9.885-.06-19.771-.09-5.082-.015-10.162-.048c-3.903-.024-7.805-.036-11.707-.044l-3.653-.032c-9.472 0-17.347.63-24.597 7.227-3.901 4.682-4.301 10.302-3.82 16.207 1.094 6.556 3.48 12.728 5.875 18.904 1.413 3.76 2.187 6.053.945 9.889-8.856-4.695-17.44-9.794-26-15l-2.758-1.677q-5.975-3.634-11.946-7.274a2366 2366 0 0 0-16.092-9.725 766 766 0 0 1-8.204-5.012q-6.75-4.163-13.522-8.29A2431 2431 0 0 1 189 305c1.606-5.15 4.787-8.94 8.063-13.125l1.779-2.296c4.62-5.943 9.312-11.818 14.158-17.579l1.434-1.708q2.34-2.776 4.691-5.542l1.451-1.718c6.032-7.05 12.313-12.96 19.924-18.282q2.393-1.698 4.785-3.398l2.4-1.699a537 537 0 0 0 8.372-6.131c6.474-4.808 13.026-9.364 19.943-13.522l3.332-2.027c6.647-3.969 13.197-7.203 20.535-9.77 2.43-.933 4.6-1.925 6.899-3.117 4.563-2.328 9.273-4.037 14.109-5.711l2.527-.906c8.109-2.833 16.022-4.77 24.66-4.656" id="svg-layer-7" style="pointer-events: all;"/><path fill="#932323" d="M575 446c1.19 2.38 1.153 4.38 1.24 7.003.287 8.327 1.243 16.515 2.51 24.747l.439 3.137c.98 6.032 1.902 9.344 6.811 13.113l1 1c1.682.233 3.371.413 5.063.563l2.785.253L597 496l-.148 2.934c.002 4.614 1.218 8.733 2.523 13.128l.672 2.354q.652 2.264 1.335 4.52c.549 1.834 1.04 3.684 1.524 5.537C604 527 604 527 605.946 528.023l2.179.352L612 529v1l-1.793.297c-5.055.957-8.455 1.95-12.207 5.703-2.144 4.288-1.431 8.574-.094 12.996 2.515 6.713 5.527 13.057 8.957 19.348 1.196 2.793 1.37 4.654 1.137 7.656h2c10.674 27.38 13.122 59.558 5 88l-.567 2.053C609.057 685.044 598.695 702.033 586 717l-1.773 2.145c-23.271 27.535-57.476 40.846-92.301 45.425-2.926.43-2.926.43-4.86.946-3.477.814-7.015.668-10.566.672l-2.3.037c-3.999.01-6.73-.273-10.2-2.225l1.817-.044c2.749-.075 5.497-.172 8.245-.269l2.858-.068c5.815-.223 9.845-1.132 15.08-3.619h4v-3l2.152-.84 2.786-1.097 2.777-1.09C506 753 506 753 507 752a100 100 0 0 1 5 0v-4l1.61-.734c4.185-1.986 7.2-3.84 10.39-7.266l3-1 1-3h4l.5-2.062c2.19-4.29 5.62-7.133 9.5-9.938h2v-4a180 180 0 0 1 4-4l1.563-3.187C551 710 551 710 554 709l.313-2.312c.734-2.872 1.359-3.918 3.687-5.688h2l-.187-2.25c.187-2.75.187-2.75 1.542-4.527 2.004-2.709 2.986-5.375 4.145-8.535 2.66-7.154 2.66-7.154 4.125-10.375 1.535-3.698 2.645-7.424 3.727-11.274C574 662 574 662 575 661c.21-2.142.368-4.29.5-6.437.39-6.343.39-6.343 1.5-8.563.157-2.842.258-5.663.316-8.508l.063-2.547q.098-4.035.183-8.07l.131-5.465q.161-6.705.307-13.41h-2v-16h-3l-.332-1.723c-1.046-5.092-2.54-9.512-4.668-14.277-1.9-5.265-3.508-10.607-5-16h-3l-.312-3.75c-.434-3.622-1.358-5.414-3.688-8.25v-4h-2c-5.056-16.108-5.056-16.108-7.383-23.977a120 120 0 0 0-1.68-5.023c-1.076-3.446-1.737-6.887-2.375-10.437C542 502 542 502 541.036 499.289c-1.34-4.259-1.967-8.502-2.597-12.914l-.397-2.684c-.83-5.772-1.398-11.52-1.791-17.34-.315-2.96-1.208-5.572-2.25-8.351v-4c-9.396-.737-17.833 2.604-26.375 6.25-4.128 1.727-7.181 2.136-11.625 1.75v2l-4-1c2.718-1.812 4.394-2.527 7.465-3.367l2.657-.74 2.815-.768c5.958-1.661 11.891-3.326 17.75-5.312l2.793-.942q2.39-.824 4.758-1.71c14.05-4.878 30.062-4.504 44.762-4.161" id="svg-layer-8" style="pointer-events: all;"/><path fill="#F7BE22" d="M829.438 770.563A279 279 0 0 1 837 778l2.313 2.188C841 782 841 782 841 784l1.79.785c2.377 1.307 3.754 2.66 5.585 4.653C859.127 800.387 871.841 808.286 885 816c-1.569 4.627-4.057 8.256-6.875 12.188l-1.316 1.904c-2.316 3.251-4.103 5.382-7.809 6.908l-.75 2.188c-1.596 3.591-3.767 5.227-6.762 7.707a134 134 0 0 0-5.508 4.93l-1.586 1.493a451 451 0 0 0-3.093 2.95c-2.924 2.74-5.47 4.52-9.301 5.732v2l-3.055 1.707c-4.428 2.528-8.652 5.341-12.87 8.201-3.335 2.197-6.082 3.648-10.075 4.092v2c-6.23 3.054-6.23 3.054-9.687 2.813-2.223-.781-4.254-1.67-6.313-2.813v-2l-2.187-.75c-3.107-1.38-5.181-3.1-7.813-5.25q-2.301-1.754-4.607-3.502C772.37 858.608 772.37 858.608 768 854v-2l-1.625-.687c-4.225-2.335-8.224-5.637-11.375-9.313v-2l-3-1v-2l-1.937-.812C748 835 748 835 747 832h-2c-3.28-3.015-6.7-6.547-7.258-11.11 1.508-8.186 6.77-18.699 12.258-24.89h2l.75-1.687c1.48-2.737 3.185-4.99 5.25-7.313h2l1-3c4.457-4 4.457-4 7-4v-2a115 115 0 0 1 6.813-4.812l2.07-1.362c17.53-11.313 35.092-15.404 52.554-1.264" id="svg-layer-9" style="pointer-events: all;"/><path fill="#86CA36" d="m561 826-2 4h-2v2h-2c-2.543 4.767-2.918 9.74-2 15 1.604 3.036 3.714 5.453 6 8a189 189 0 0 1 3.5 4.188l1.594 1.855c.906 1.957.906 1.957.433 4.262-2.058 3.632-4.67 6.546-7.465 9.633-5.618 6.21-9.643 11.233-9.277 19.945.285 2.811.633 4.744 2.215 7.117 1.994.685 3.995 1.348 6 2a178 178 0 0 1 6.813 3.438l3.457 1.808C569 911 569 911 570 914c-.545 2.065-.545 2.065-1.469 4.422l-.98 2.61a983 983 0 0 1-2.102 5.39c-1.964 5.26-3.022 8.971-1.449 14.578 3.857 5.105 8.228 6.466 14.315 7.328 2.498.274 4.995.513 7.497.735q2.542.23 5.083.472l2.245.2C595 950 595 950 597 951l.044 1.848c.075 2.78.172 5.56.269 8.34l.068 2.908c.342 8.986.342 8.986 3.619 12.904 2.278 1.556 4.54 2.77 7 4v2l1.676.762c2.728 1.454 5.065 3.16 7.511 5.05l2.668 2.02c3.648 3.687 3.275 8.212 3.47 13.203.06 1.139.12 2.278.18 3.451q.183 3.581.306 7.164c.497 8.522.497 8.522 2.61 11.049 1.661 1.11 1.661 1.11 4.579 2.301-1.462 4.826-4.269 8.656-8 12-2.7 1.207-2.7 1.207-5 2-9.567-8.316-9.567-8.316-13.562-13.187-3.104-3.72-6.574-6.111-10.715-8.586L592 1019v-2l-1.875-.937L586 1014l-3.625-.062c-7.757-.806-14.617-5.299-21.375-8.938q-3.06-1.638-6.123-3.273-2.07-1.105-4.137-2.218a254 254 0 0 0-12.377-6.161l-2.888-1.345a574 574 0 0 0-5.609-2.553l-2.577-1.188-2.29-1.033c-2.429-1.493-3.568-2.76-4.999-5.229-.824-3.993-1.127-7.794-1.134-11.864l-.013-3.48.002-3.774-.01-4.008q-.014-5.422-.012-10.846l-.006-6.777q-.014-11.823-.012-23.644-.001-11.023-.026-22.045-.019-9.468-.018-18.935.002-5.654-.013-11.307c-.011-4.197-.007-8.393 0-12.59-.007-1.252-.012-2.503-.018-3.793l.013-3.454-.002-3.007C519 840 519 840 521 837c2.224-.812 2.224-.812 4.988-1.43l3.064-.714 3.26-.731c8.096-1.902 15.742-3.958 23.395-7.242C558 826 558 826 561 826" id="svg-layer-10" style="pointer-events: all;"/><path fill="#DCE9FC" d="m474.313 840.867 3.257-.004 3.43.012 3.43-.012 3.257.004 3.012.004C493 841 493 841 494 842c.102 1.812.134 3.629.138 5.444.005 1.182.01 2.363.017 3.58l.003 3.966.015 4.149q.017 4.48.026 8.959c.01 4.728.031 9.457.053 14.185.062 13.45.116 26.9.15 40.349q.027 11.132.087 22.265.034 5.889.04 11.778.002 5.552.044 11.103c.01 1.993.006 3.985.001 5.977.1 10.772 1.527 20.362 9.426 28.245 5.927 4.983 12.354 8.443 19.281 11.836l3.194 1.588c3.338 1.658 6.681 3.305 10.025 4.951l6.828 3.387q8.33 4.131 16.672 8.238v2q-30.237.231-60.473.443-14.039.098-28.078.205-12.232.095-24.467.177a9227 9227 0 0 0-12.96.096q-6.095.049-12.19.086-2.241.014-4.481.035-3.052.026-6.106.04l-3.455.025C405 1035 405 1035 402 1034v-2l1.83-.889c6.338-3.079 12.664-6.182 18.983-9.298q3.53-1.736 7.07-3.453c3.409-1.655 6.807-3.332 10.203-5.012l3.158-1.517c10.71-5.352 18.31-11.093 22.76-22.433 1.747-5.96 1.688-11.792 1.64-17.963q.01-2.129.026-4.257c.024-3.813.018-7.626.006-11.44-.007-4 .015-8 .035-12.002.032-7.56.04-15.119.038-22.679-.002-11.123.032-22.245.068-33.368l.015-4.918.008-2.424q.022-7.143.022-14.285.001-4.423.01-8.847.001-2.057-.001-4.115-.003-2.798.004-5.594v-3.168c.234-4.39 2.594-3.466 6.438-3.47" id="svg-layer-11" style="pointer-events: all;"/><path fill="#2CB07F" d="M395 135h2c3 5.625 3 5.625 3 9h2c9.29 20.262 17.626 40.497 24.57 61.693 1.79 5.46 3.703 10.838 5.899 16.15 1.01 4.099-.129 6.587-2.254 10.145a535 535 0 0 1-2.277 3.325c-14.863 22.477-25.025 49.697-28.481 76.437C399 314 399 314 397 317c-3.188.328-3.188.328-7 .25-1.258-.015-2.516-.03-3.812-.047C383 317 383 317 381 316l-.148-2.84c-.406-7.433-.896-14.85-1.539-22.267-1.354-15.82-2.091-31.66-2.783-47.52q-.371-8.487-.756-16.973-.129-2.906-.255-5.81c-.414-9.277-.878-18.56-2.039-27.778C371.998 173.525 383.52 151.737 394 136z" id="svg-layer-12" style="pointer-events: all;"/><path fill="#F8D945" d="M344 195c-3.87 4.354-7.734 6.603-13 9q-2.005.992-4 2v2h-7v4l-3.062 1.25c-3.839 1.644-7.346 3.621-10.938 5.75l-2.875 1.625C301 222 301 222 300 224h-5l-.312 1.875C294 228 294 228 291 230h-3v2c-1.46 1.29-1.46 1.29-3.375 2.625l-1.898 1.352C281 237 281 237 279 237l-1 3h-2v2l-4 1-.219 1.773c-1.062 3.028-2.699 3.997-5.281 5.852-4.41 3.196-4.41 3.196-5.5 5.375h-5l.313 2.313L256 261a1042 1042 0 0 1-5 3 121 121 0 0 0-5.25 5.5l-2.64 2.906C241 275 241 275 240 278a282 282 0 0 1-5 5l-2.187 2.813L231 288h-2l-.25 1.875C228 292 228 292 225.938 293.25L224 294v2l2.043.207c3.998 1.072 6.894 3.138 10.27 5.48l2.004 1.379q1.959 1.351 3.912 2.715a145 145 0 0 0 4.529 2.969c1.993 1.315 3.68 2.445 5.242 4.25.5 3.875.5 3.875 0 7l2.188.32c3.07.742 5.144 1.88 7.812 3.555l2.5 1.555L267 327l2.813 1.57L272 330v2l5 1 1 3h4l2 3 3 1 1-2 .625 3.938c1.155 5.963 3.237 11.524 5.43 17.171 1.411 3.762 2.187 6.055.945 9.891-8.856-4.695-17.44-9.794-26-15l-2.758-1.677q-5.975-3.634-11.946-7.274a2366 2366 0 0 0-16.092-9.725 766 766 0 0 1-8.204-5.012q-6.75-4.163-13.522-8.29A2431 2431 0 0 1 189 305c1.606-5.15 4.787-8.94 8.063-13.125l1.779-2.296c4.62-5.943 9.312-11.818 14.158-17.579l1.434-1.708q2.34-2.776 4.691-5.542l1.451-1.718c6.032-7.05 12.313-12.96 19.924-18.282q2.393-1.698 4.785-3.398l2.4-1.699a537 537 0 0 0 8.372-6.131c6.474-4.808 13.026-9.364 19.943-13.522l3.332-2.027c6.647-3.969 13.197-7.203 20.535-9.77 2.43-.933 4.6-1.925 6.899-3.117 4.563-2.328 9.273-4.037 14.109-5.711l2.527-.906c15.14-5.288 15.14-5.288 20.598-3.469" id="svg-layer-13" style="pointer-events: all;"/><path fill="#B5E572" d="M485 210c11.714 33.483 9.614 63.34-5.75 95.438-4.974 10.286-4.974 10.286-6.25 11.562a91 91 0 0 1-5.162.114H464.5l-3.63-.016-3.695-.005c-3.913-.005-7.826-.018-11.738-.03q-3.968-.008-7.936-.014-9.75-.017-19.502-.049c-1.637-3.273-.221-6.568.563-10l.553-2.43c6.63-28.057 19.838-51.762 39.884-72.57a479 479 0 0 0 3.5-4.125C478.063 210 478.063 210 485 210" id="svg-layer-14" style="pointer-events: all;"/><path fill="#F7BD22" d="M729 837c3.91 3.244 7.144 7.151 10.438 11 3.034 3.544 6.343 6.517 9.96 9.457C751 859 751 859 752 862q1.995 1.011 4 2c1.849 1.626 3.657 3.3 5.438 5 4.25 3.991 8.606 7.724 13.25 11.25l1.637 1.244a723 723 0 0 0 7.495 5.58l2.492 1.864c.719.524 1.437 1.049 2.176 1.59L790 892v3l-6 1-1 3c-6.862 4.119-14.785 6.394-22.437 8.563l-3.134.898C744.289 912.148 730.692 915.5 717 916l-3.125.156c-8.58.243-18.433-.368-25.875-5.156-3.731-5.561-2.445-12.624-1.277-18.855C691.21 872.317 700.898 852.016 718 840h2v-2c3.374-2.124 5.261-2.478 9-1" id="svg-layer-15" style="pointer-events: all;"/><path fill="#F5BC23" d="M902 734v2l1.75.625c4.063 2.483 5.83 6.146 7.34 10.559 3.729 15.636.16 33.152-8.09 46.816-2.153 3.31-3.865 5.674-7.812 6.809-9.89.593-19.864-9.018-27.188-14.809l-2.344-1.645L864 783v-2l-1.691-.7c-2.922-1.645-4.91-3.71-7.246-6.112l-2.528-2.583L850 769a124 124 0 0 0-10.687-9.75l-2.887-2.36C834 755 834 755 832 754v-2l-2.312-.375C827 751 827 751 824 749v-3c20.711-15.59 53.801-24.1 78-12" id="svg-layer-16" style="pointer-events: all;"/><path fill="#F7BE22" d="M751 728c2.129 1.87 3.388 3.606 5 6v2l3 1c2.318 2.39 4.248 5.094 6.25 7.75l1.719 2.172c3.97 5.243 3.97 5.243 4.23 8.828-1.666 3.126-3.724 4.497-6.636 6.5q-1.65 1.172-3.29 2.355l-1.669 1.201c-6.487 4.827-12.147 10.493-17.229 16.76L741 784h-2l-.762 1.629c-1.51 2.893-3.279 5.568-5.05 8.308-3.595 5.652-5.97 11.205-8.083 17.579L724 814l-3 1q-2.759-3.18-5.5-6.375l-1.59-1.828c-3.91-4.57-3.91-4.57-3.91-6.797l-1.875-.75c-2.529-1.487-2.843-2.687-4.125-5.25l-1.672-.836c-3.133-1.566-5.808-3.668-8.578-5.789l-1.68-1.273A1462 1462 0 0 1 688 783c2.821-11.853 9.257-20.59 18-29l2.148-1.035c2.408-1.255 2.665-2.56 3.852-4.965 6.592-6.29 14.155-11.414 22-16l2.668-1.578c5.04-2.776 8.62-4.55 14.332-2.422" id="svg-layer-17" style="pointer-events: all;"/><path fill="#FAFBFD" d="M645.14 201.965c2.569 1.43 3.88 3.234 5.61 5.597l1.86 2.504L654 212c-1.307 2.996-2.518 4.69-5.168 6.594l-1.933 1.413-2.087 1.493a1898 1898 0 0 0-4.398 3.227l-2.249 1.653c-3.228 2.415-6.352 4.95-9.477 7.495-6.324 5.122-12.83 9.957-19.403 14.753-6.511 4.765-12.896 9.677-19.235 14.666-3.228 2.536-6.463 5.02-9.831 7.366-2.682 1.95-4.806 3.732-6.969 6.215l-1.672 1.867c-4.895 7.004-5.794 14.867-7.203 23.133a2643 2643 0 0 1-1.29 7.367l-.56 3.277C562 315 562 315 561 316c-1.343.086-2.69.107-4.035.098l-2.451-.01-2.577-.026-2.587-.013q-3.175-.02-6.35-.049c-1.264-3.627-.742-6.243.074-9.953l.768-3.544.846-3.753.85-3.823q.84-3.762 1.694-7.52c.64-2.84 1.253-5.683 1.85-8.532C552.321 263.899 559.749 258.174 572 250l3.402-2.297c3.082-2.071 6.178-4.122 9.276-6.169 25.893-17.11 25.893-17.11 37.275-25.354 4.928-3.526 9.986-6.85 15.047-10.18l3.094-2.29C643 202 643 202 645.14 201.966" id="svg-layer-18" style="pointer-events: all;"/><path fill="#F7BE22" d="M861.355 707.219c1.795 1.944 2.265 3.194 2.645 5.781l-2.824.734q-5.079 1.335-10.145 2.715c-1.82.494-3.642.978-5.465 1.461-11.839 3.348-21.717 9.098-31.421 16.586C812 736 812 736 810 736l-.777 1.805c-2.46 4.416-6.856 7.361-11.575 9.023-2.23.522-4.37.935-6.648 1.172l-2.559.316C786 748 786 748 784.227 746.13l-1.602-2.567a160 160 0 0 0-14.062-18.5C766 722 766 722 766 720h-2c2.794-8.59 11.26-12.82 18.875-16.812 6.247-2.978 12.322-4.964 19.125-6.188l2.184-.395c18.887-2.677 41.84-1.541 57.171 10.614" id="svg-layer-19" style="pointer-events: all;"/><path fill="#F8BF22" d="M681.793 798.531c3.807 1.744 6.546 4.094 9.52 6.969l1.702 1.614C706.657 820.188 706.657 820.188 709 827c-1.375 1.5-1.375 1.5-3 3h-2v2l-2.937 2.375c-10.729 8.955-18.85 23.205-23.5 36.25-1.645 4.147-2.896 6.19-6.938 8.188-4.142 1.36-7.409 1.536-11.625.187-6.952-7.196-7.611-21.259-7.468-30.773.562-12.907 5.352-22.776 12.468-33.227l2.125-3.375L668 809h2l.75-1.687c2.407-4.453 5.444-9.847 11.043-8.782" id="svg-layer-20" style="pointer-events: all;"/><path fill="#7BC53C" d="M415 832c5.839-.629 11.176.736 16.813 2.188l2.6.595 2.482.635 2.245.555c2.771 1.53 2.957 2.995 3.86 6.027.283 3.112.263 6.21.243 9.333l.006 2.825a1901 1901 0 0 1-.019 9.225v6.414q-.003 6.716-.024 13.431-.024 8.618-.02 17.234-.001 6.62-.013 13.239-.005 3.177-.006 6.356-.004 4.434-.022 8.87l.002 2.663c-.018 3.383-.07 6.179-1.147 9.41-6.304-.584-11.987-2.04-18-4 .628-9.152 3.22-17.786 5.712-26.57 2.184-7.743 3.975-14.404 2.288-22.43l-2.062-.687c-2.986-1.335-5.395-3.04-8.016-4.977-1.92-1.334-3.858-2.43-5.922-3.524-6.976-3.76-13.45-8.367-20-12.812.578-4.384 2.196-7.34 4.527-11.07l1.058-1.706c1.11-1.788 2.231-3.568 3.353-5.349l2.248-3.613c2.562-4.116 5.124-8.228 7.814-12.262" id="svg-layer-21" style="pointer-events: all;"/><path fill="#219B68" d="M395 135h2c3 5.625 3 5.625 3 9h2a419 419 0 0 1 2.063 4.375l1.16 2.46L406 153l-1 2-3-4-.113 1.758-.2 2.367-.175 2.32C401 160 401 160 399.527 162.758c-1.9 4.032-2.272 7.593-2.652 11.992l-.238 2.406c-.224 2.28-.433 4.562-.637 6.844q-.277 3-.562 6l-.192 2.25C395 194 395 194 394 196a111 111 0 0 0-.5 5.05l-.25 3.057-.25 3.206q-.245 3.12-.5 6.238l-.219 2.802C392 219 392 219 391.503 221.43c-2.723 13.9-1.657 28.91-1.633 42.988q.005 5.657-.007 11.313 0 3.656.004 7.311l-.006 3.356c.022 7.574.463 15.059 1.139 22.601l-2 1-1-6c-1.478 2.957-1.06 5.742-1 9l1.934.367 2.503.508 2.497.492L396 315l1 2q-3.437.039-6.875.063l-3.867.035C383 317 383 317 381 316l-.148-2.84c-.406-7.433-.896-14.85-1.539-22.267-1.354-15.82-2.091-31.66-2.783-47.52q-.371-8.487-.756-16.973-.129-2.906-.255-5.81c-.414-9.277-.878-18.56-2.039-27.778C371.998 173.525 383.52 151.737 394 136z" id="svg-layer-22" style="pointer-events: all;"/><path fill="#9FE141" d="M485 210c3.886 8.03 3.132 17.302 3 26h-2v-2c-3.255 2.17-4.07 3.68-6 7-1.971 2.544-4.015 5.018-6.062 7.5-1.938 2.5-1.938 2.5-3.563 5.313L469 256h-2c-1.143 2.205-2.132 4.355-3 6.688-1 2.312-1 2.312-3 3.312l-1 3c-1 3-1 3-3 4-.93 1.672-.93 1.672-1.875 3.75-1.276 2.691-2.35 4.515-4.312 6.813C449 286 449 286 448.5 289.5c-.583 4.08-1.886 5.41-4.5 8.5-1.25 3.313-1.25 3.313-2 6h-2v9c-6.817 1.788-12.965 2.237-20 2v-2h-2c4.39-37.239 27.767-73.953 57.018-97.038l1.795-1.4 1.745-1.364C482.754 210 482.754 210 485 210" id="svg-layer-23" style="pointer-events: all;"/><path fill="#82C839" d="m703.207 628.867 3.22-.004 3.385.012 3.256-.012c7.685.01 15.28.448 22.932 1.137q.932 9.742 1.819 19.489.305 3.316.623 6.631c.303 3.174.592 6.35.878 9.525l.297 3.002.243 2.79.229 2.456C740 676 740 676 738 679c-2.256.265-2.256.265-5.059.11l-3.11-.153-3.269-.207-3.162-.16a263 263 0 0 1-15.341-1.25c-4.009-.379-6.843-.28-10.559 1.472l-2.406 1.083C693 681 693 681 690 683c-1.107-3.322-.885-4.32-.074-7.629l.663-2.851.723-3.082c2.346-10.425 3.5-20.657 4.054-31.321l.177-3.176.126-2.822L696 630c2.549-1.274 4.355-1.13 7.207-1.133" id="svg-layer-24" style="pointer-events: all;"/><path fill="#CC863C" d="M1030.863 586.105c3.73 1.064 5.521 2.552 8.324 5.207l2.543 2.364c6.247 6.397 6.247 6.397 6.27 11.324-2.02 2.457-2.02 2.457-4.812 4.813l-2.77 2.394C1038 614 1038 614 1036 614v2c-5.476 5-5.476 5-8 5l-1 3h-3l-1 3a99 99 0 0 1-5.312 4.563l-2.926 2.378c-2.231 1.663-4.23 2.946-6.762 4.059v2c-1.528 1.396-3.127 2.716-4.75 4-3.19 2.526-6.33 5.038-9.336 7.781-9.238 8.344-9.238 8.344-15.676 8.344L976 660l-2.707.063c-6.854.156-6.854.156-9.293-1.063.526-3.99 1.523-6.06 4.25-9l1.906-2.066L972 646l1.469-1.59c2.17-2.283 3.486-3.395 6.531-4.41 1.188-2.562 1.188-2.562 2-5h2l.824-1.785c1.152-2.169 2.376-3.81 3.989-5.653l1.457-1.683a140 140 0 0 1 4.074-4.219c2.858-2.863 5.608-5.805 8.343-8.785l1.566-1.703 3.185-3.469q1.527-1.666 3.058-3.328 2.067-2.248 4.129-4.5l2.414-2.633C1019 595 1019 595 1021 592h3l.313-1.875c1.145-3.54 3.001-4.15 6.55-4.02" id="svg-layer-25" style="pointer-events: all;"/><path fill="#DFEBFC" d="m538.858 341.886 2.396.016 2.588.01 2.72.026 2.733.013q3.352.02 6.705.049c-.647 8.512-2.121 16.851-3.652 25.238l-.789 4.36q-.822 4.541-1.652 9.08a4259 4259 0 0 0-2.1 11.613q-.81 4.49-1.63 8.98-.39 2.14-.774 4.283c-.358 1.994-.724 3.986-1.09 5.978l-.624 3.428c-.651 2.874-1.398 5.392-2.689 8.04-2.155 1.027-2.155 1.027-4.79 1.582l-2.85.635-2.985.596-3.008.654Q523.69 427.26 520 428c-1.03-3.09-1.004-3.971-.383-7.027l.489-2.459.554-2.666.561-2.787c.606-3.001 1.224-6 1.841-8.998l1.253-6.166c2.938-14.44 5.938-28.867 9.106-43.258q.584-2.66 1.146-5.325c1.55-7.26 1.55-7.26 4.29-7.428" id="svg-layer-26" style="pointer-events: all;"/><path d="M329 233c8.215 6.849 8.349 21.138 9.297 31.129.339 7.067.339 7.067-2.422 10.558-3.351 1.53-5.238 1.932-8.875 1.313-4.104-3.119-5.073-6.723-6.125-11.562l-.499-2.153A410 410 0 0 1 319 256l-.695-3.25c-2.425-12.296-2.425-12.296.007-17.625 3.095-3.897 6.224-3.31 10.688-2.125" id="svg-layer-27" style="pointer-events: all;"/><path fill="#010000" d="M277 253c4.36 2.282 5.932 6.293 7.938 10.563l2.09 4.34 1.014 2.128c1.25 2.57 2.609 5.076 3.958 7.594 1.783 3.62 2.949 6.295 2 10.375-2.456 3.323-3.926 4.776-8 5.625-4.847-1.01-6.758-3.79-9.398-7.691-1.621-2.603-3.12-5.25-4.602-7.934l-.965-1.697c-6.65-11.774-6.65-11.774-6.16-16.99 2.167-6.382 5.396-7.63 12.125-6.313" id="svg-layer-28" style="pointer-events: all;"/><path d="m236.438 301.75 1.998 1.365A661 661 0 0 1 244 307l2.531 1.746c3.26 2.465 4.39 3.796 5.094 7.879-.646 3.488-.956 5.062-3.625 7.375-3.297.884-5.318 1.238-8.57.102C221.258 313.599 221.258 313.599 216 307c-.721-3.508-.711-6.898 1.25-9.937 7.021-4.263 13.23.602 19.188 4.687" id="svg-layer-29" style="pointer-events: all;"/><path fill="#219A66" d="M544 833c-7.4 3.108-13.791 4.24-22 6v61l8 3c8.133 3.2 8.133 3.2 10 6 1.113 3.656 1.32 5.315-.312 8.813C538 920 538 920 536 921c-4.878.163-9.184-.172-14-1q-.07 11.853-.104 23.705-.014 5.504-.047 11.007-.032 5.31-.039 10.62c-.005 2.01-.02 4.019-.037 6.028v3.7l-.014 3.263C522 981 522 981 524 984a100 100 0 0 0 6.063 3.063c5.83 2.724 5.83 2.724 6.937 4.937-3.757-1.06-7.216-2.486-10.687-4.25l-2.262-1.14c-2.967-2.329-3.71-4.017-5.051-7.61-.444-4.464-.4-8.91-.372-13.393q-.004-2.049-.011-4.097c-.01-3.696 0-7.392.013-11.088.011-3.87.007-7.74.005-11.61q0-9.744.029-19.487c.021-7.512.024-15.024.018-22.535q-.006-10.843.011-21.686.007-4.614.004-9.228-.002-5.428.022-10.857c.006-1.964.003-3.927-.001-5.891l.021-3.53.007-3.075C519 840 519 840 521 837c1.908-.815 1.908-.815 4.21-1.422l2.524-.668 2.641-.66 2.617-.707c7.058-1.819 7.058-1.819 11.008-.543" id="svg-layer-30" style="pointer-events: all;"/><path fill="#C37738" d="M676 800h2c-1.618 3.793-4.056 6.53-6.75 9.625C658.591 824.477 653.522 839.583 655 859c.972 6.495 2.091 12.594 6 18 4.786.85 8.006-.37 12-3 1.75-2.74 2.891-5.663 4.063-8.687 5-12.446 5-12.446 8.937-17.313h2c-1.944 5.177-4.484 10.022-6.99 14.941l-1.037 2.051-1.024 2.02c-.916 1.92-1.679 3.854-2.437 5.84-2.041 4.25-3.923 4.953-8.16 6.554-3.475.877-5.954.681-9.352-.406-6.952-7.196-7.611-21.259-7.468-30.773.562-12.907 5.352-22.776 12.468-33.227l2.125-3.375L668 809h2l.75-1.687c1.48-2.737 3.185-4.99 5.25-7.313" id="svg-layer-31" style="pointer-events: all;"/><path fill="#76C240" d="M1011 726c4.919.618 8.847 2.753 13.188 5l2.193 1.117c1.875.956 3.747 1.92 5.619 2.883l2 1c-.564 4.096-1.866 6.664-4.187 10.063-3.318 5.017-5.998 10.16-8.551 15.601C1020 764 1020 764 1018 765l1-6-5 2a141 141 0 0 1 5-5h2c3.127-6.046 3.247-11.217 2.813-17.875-.135-.35-.135-.35-.813-2.125a88 88 0 0 0-5-2c-2.495-1.823-4.878-3.75-7-6z" id="svg-layer-32" style="pointer-events: all;"/><path fill="#932323" d="M448 480v2c-15.177 4.52-28.374 4.61-43.95 2.453-17.47-2.173-17.47-2.173-23.05 1.547-.676 1.84-.676 1.84-1.098 4.078l-.486 2.499c-.08.441-.08.441-.478 2.673l-.52 2.73a295 295 0 0 0-2.48 15.707c-1.074 8.022-3.655 14.965-6.938 22.313-1.105-3.314-.932-3.937.11-7.113l.783-2.502.857-2.697c2.658-8.721 4.28-17.25 5.224-26.314 1.28-11.628 1.28-11.628 5.026-15.374 1.613-.1 3.231-.13 4.848-.133l3.025-.004 3.19.012 3.107-.012c4.349.006 8.623.029 12.935.63 11.414 1.487 23.68 1.618 34.715-1.837C445 480 445 480 448 480" id="svg-layer-33" style="pointer-events: all;"/><path fill="#C07237" d="M861.355 707.219c1.795 1.944 2.265 3.194 2.645 5.781l-2.965.77q-1.986.52-3.972 1.043l-2.074.543c-3.79 1.009-7.487 2.12-11.177 3.457-3.673 1.144-4.425 1.291-7.812.187 7.868-3.106 15.725-5.264 24-7-1.791-4.328-4.195-6.178-8.41-8.098l-2.653-.965-2.597-.972c-9.086-2.625-17.851-3.282-27.278-3.215l-3.302-.023c-8.676.02-17.815.298-25.822 3.96C787 704 787 704 784 703c5.906-2.876 11.515-4.917 18-6l2.004-.34c19-2.632 41.893-1.697 57.351 10.559" id="svg-layer-34" style="pointer-events: all;"/><path fill="#BE7639" d="M703 856c1 3 1 3-.312 5.688L701 864h-2l-.812 2.477a395 395 0 0 1-2.625 7.546l-.774 2.157q-.785 2.184-1.578 4.367c-2.51 7.022-4.497 13.73-4.586 21.265l-.086 3.333C689 908 689 908 690.65 909.762c6.929 3.648 13.229 3.51 20.914 3.426l3.404-.002c4.849-.026 9.282-.2 14.033-1.186 2.333-.038 4.667-.046 7 0-3.46 2.306-6.356 2.668-10.375 3.125l-2.161.25C711.914 916.629 698.257 917.6 688 911c-3.731-5.561-2.445-12.624-1.277-18.855 2.819-12.46 7.033-26.9 16.277-36.145" id="svg-layer-35" style="pointer-events: all;"/><path fill="#F3F7FD" d="M553 351c.781 11.7-1.571 22.614-4 34l-3 1v-2h-4v-16h2l1-2 1 4v-2h2l.367-3.465.508-4.473.238-2.287c.226-1.934.55-3.857.887-5.775 2-1 2-1 3-1" id="svg-layer-36" style="pointer-events: all;"/><path fill="#C37738" d="M841 784c3.137 1.377 5.066 2.925 7.375 5.438C859.127 800.387 871.841 808.286 885 816c-1.567 4.648-4.09 8.256-6.937 12.188l-1.342 1.904c-2.078 2.895-3.728 4.913-6.721 6.908.588-3.82 2.342-5.902 4.813-8.812 3.227-3.912 5.845-7.699 8.187-12.188l-2.566-.73c-3.811-1.41-7.013-3.345-10.371-5.582l-1.856-1.22A813 813 0 0 1 863 805l-2.465-1.633c-1.555-1.062-3.054-2.204-4.535-3.367v-2l-1.64-.687c-3.102-1.726-5.487-3.926-8.11-6.313l-1.535-1.367c-1.28-1.167-2.503-2.396-3.715-3.633z" id="svg-layer-37" style="pointer-events: all;"/><path fill="#C37638" d="m766 758 2 1-1.31 1.035C743.98 778.04 743.98 778.04 741 784h-2l-.762 1.629c-1.51 2.893-3.279 5.568-5.05 8.308-3.595 5.652-5.97 11.205-8.083 17.579L724 814l-3 1-1-3 1.422-1.285c2.003-2.176 2.607-4.527 3.578-7.278 3.43-8.36 8.736-16.892 15-23.437h2l.75-1.875c1.478-2.512 2.69-2.886 5.25-4.125l1-3c1.351-1.319 1.351-1.319 3.055-2.629l1.863-1.447 1.957-1.486 1.934-1.499c2.686-2.072 5.366-4.056 8.191-5.939" id="svg-layer-38" style="pointer-events: all;"/><path fill="#F0F5FD" d="M575 366h1v32h-2l1 4h-2l-1-2-2 1c-.265-7.768.441-14.945 1.938-22.562l.552-2.979c1.352-7.143 1.352-7.143 2.51-9.459" id="svg-layer-39" style="pointer-events: all;"/><path fill="#C57A39" d="M751 728c2.129 1.87 3.388 3.606 5 6v2l3 1a106 106 0 0 1 4.688 6.063c.415.567.83 1.135 1.26 1.72q1.534 2.102 3.052 4.217l-1 2a2328 2328 0 0 1-5.043-5.762 583 583 0 0 0-3.758-4.258l-1.636-1.855-1.497-1.68C754 736 754 736 754 734h-2a105 105 0 0 1-4-5c-12.612 3.967-22.503 10.643-32.14 19.484-1.868 1.523-3.67 2.528-5.86 3.516 3.65-9.137 15.858-15.24 24-20l2.668-1.578c5.04-2.776 8.62-4.55 14.332-2.422" id="svg-layer-40" style="pointer-events: all;"/><path fill="#C47939" d="M902 736c4.245 1.516 5.827 4.16 8 8 5.308 15.505 1.715 32.183-5 46.688-2.113 3.499-4.188 6.352-7 9.312h-2c.956-2.132 1.78-3.783 3.453-5.434 8.268-8.372 9.9-23.23 9.985-34.441l.03-2.34c-.124-8.279-2.546-15.165-7.468-21.785M766 720h2c1.46 1.59 2.842 3.25 4.188 4.938l2.425 3.035L777 731l2.043 2.559c2.916 3.686 5.69 7.307 7.957 11.441 7.983-.405 12.869-.869 18.688-6.687L808 736h2c-2.098 4.871-5.48 7.378-10 10-2.974 1.047-5.866 1.674-9 2l-2.559.316C786 748 786 748 784.227 746.13l-1.602-2.567a160 160 0 0 0-14.062-18.5C766 722 766 722 766 720" id="svg-layer-41" style="pointer-events: all;"/><path fill="#FEFEFE" d="M304 608h2v32h-4v-16h2z" id="svg-layer-42" style="pointer-events: all;"/><path fill="#C47839" d="M750 796h2l-1 4h-2l-.8 2.027c-.892 2.21-1.81 4.41-2.743 6.602l-1.644 3.933-.866 1.999c-1.077 2.607-1.98 4.801-1.834 7.65 1.135 2.289 2.54 3.966 4.262 5.851l1.836 2.036a80 80 0 0 0 3.516 3.523C752 835 752 835 752 837c-1.937-.812-1.937-.812-4-2l-1-3h-2c-3.28-3.015-6.7-6.547-7.258-11.11 1.508-8.186 6.77-18.699 12.258-24.89" id="svg-layer-43" style="pointer-events: all;"/><path fill="#EFF4FD" d="M295 656h4c.654 4.74 1 9.21 1 14l1 2 2-12h1q-.212 3.876-.437 7.75l-.12 2.21c-.43 7.28-.43 7.28-1.443 10.04l-3 1-2-8h2a513 513 0 0 0-.875-4.25l-.492-2.39C297 664 297 664 295.93 661.952 295 660 295 660 295 656" id="svg-layer-44" style="pointer-events: all;"/><path fill="#219A66" d="M1033 736c1 3 1 3-.363 5.848l-1.95 3.215-1.925 3.222C1027 751 1027 751 1025 753a277 277 0 0 0-2.203 5.18c-1.055 2.41-2.387 4.604-3.797 6.82-1.245-2.49-.777-3.41 0-6l-5 2a141 141 0 0 1 5-5h2c2.177-4.209 3.124-7.435 3.063-12.187l-.028-2.731L1024 739c2.784 1.392 2.979 3.156 4 6z" id="svg-layer-45" style="pointer-events: all;"/><path fill="#FEFEFE" d="M467.256 808.773q2.079.001 4.158.032l2.211.008c2.334.011 4.667.037 7 .062q2.37.016 4.742.027 5.816.035 11.633.098l2 4h-37c0-3.77 1.84-3.989 5.256-4.227" id="svg-layer-46" style="pointer-events: all;"/><path fill="#BA6B36" d="m687 908 1.5.813c8.094 3.844 14.246 4.604 23.188 4.437l3.376-.016c4.811-.046 9.222-.263 13.936-1.234 2.333-.038 4.667-.046 7 0-3.46 2.306-6.356 2.668-10.375 3.125l-2.161.25c-11.626 1.262-25.1 2.158-35.464-4.375z" id="svg-layer-47" style="pointer-events: all;"/><path fill="#C57A39" d="M679 798c5.241 1.32 8.504 3.818 12.313 7.5l1.702 1.614C706.657 820.188 706.657 820.188 709 827c-1.375 1.5-1.375 1.5-3 3h-2l.563-2.812C705 824 705 824 704 821h-2c-1.191-1.469-1.191-1.469-2.562-3.5-3.548-4.903-7.808-8.642-12.438-12.5l-2.812-2.375A31.3 31.3 0 0 0 678 799z" id="svg-layer-48" style="pointer-events: all;"/><path fill="#F8FAFD" d="m544 366 .875 1.938C546 370 546 370 548 371v5l-4-1v4l2 1h-2v2h3l1-4h1v7l-3 1v-2h-4v-16h2zm2 2h2l-1 2z" id="svg-layer-49" style="pointer-events: all;"/><path fill="#932323" d="M492 465c-5.424 2.92-10.822 4.406-16.758 5.938-3.114 1.02-4.685 2.123-7.242 4.062-2.205.78-4.438 1.485-6.687 2.125-6.224 1.786-6.224 1.786-7.313 2.875-1.666.04-3.334.043-5 0 2.151-2.151 3.216-2.521 6.063-3.375 3.148-1 6.129-2.109 9.125-3.5 5.074-2.327 10.31-4.139 15.578-5.977a111 111 0 0 0 6.011-2.32c2.55-.95 3.71-.758 6.223.172M367 538h1c.247 4.028-.477 6.65-2.125 10.313-2.465 5.66-4.675 11.379-6.819 17.167-1.307 3.526-2.64 7.036-4.056 10.52h-2c.578-4.535 1.794-8.162 3.688-12.312 2.797-6.325 5.169-12.72 7.395-19.265 1.823-5.33 1.823-5.33 2.917-6.423" id="svg-layer-50" style="pointer-events: all;"/><path fill="#C47939" d="m708 752 2 1-2.195 2.273c-8.269 8.695-14.84 16.55-16.805 28.727l-3-1c3.09-12.985 10.698-21.698 20-31" id="svg-layer-51" style="pointer-events: all;"/><path fill="#932323" d="M422 752c3.973-.372 6.873.594 10.535 2.07 4.195 1.583 8.508 2.79 12.805 4.063C448 759 448 759 449 760c3.324.538 6.657.966 9.996 1.402C462 762 462 762 464 764c-5.677.256-10.474-.628-15.937-2.125l-2.484-.665c-8.059-2.223-15.827-5.098-23.579-8.21z" id="svg-layer-52" style="pointer-events: all;"/><path fill="#C8803B" d="M832 752c4.757 1.456 7.812 4.305 11.313 7.688q1.716 1.628 3.437 3.253l1.676 1.59c2.671 2.493 5.469 4.834 8.281 7.164C858 773 858 773 858 775l1.875.75c2.476 1.456 3.076 2.628 4.125 5.25-3.769-1.558-6.113-3.91-8.937-6.812l-2.528-2.583L850 769a124 124 0 0 0-10.687-9.75l-2.887-2.36C834 755 834 755 832 754z" id="svg-layer-53" style="pointer-events: all;"/><path fill="#FEFEFE" d="m580 345 12 1-4 2 4 2v2h-9l-1 3v-3l-3 1c-1-2-1-2-.062-5.125z" id="svg-layer-54" style="pointer-events: all;"/><path fill="#F8FAFD" d="m534 784-2 4h-2v2l2 1-16 1 2-1 .625-1.937c1.937-2.906 3.991-2.994 7.305-3.668L528 785l2.133-.55C532 784 532 784 534 784" id="svg-layer-55" style="pointer-events: all;"/><path fill="#FEFEFE" d="M496 800h19l-3 1v3h-16z" id="svg-layer-56" style="pointer-events: all;"/><path fill="#EFF5FD" d="M332 475c2 2 2 2 2 5h-2l1 2h2c1.333 9.41 1.333 9.41 0 14h-1v-8h-3l-1 3c-.91-5.535-1.375-9.722 1-15z" id="svg-layer-57" style="pointer-events: all;"/><path fill="#C27638" d="m867 838 2 1-2.172 2.164a558 558 0 0 0-5.406 5.484C850.446 857.85 850.446 857.85 844 862h-2v2l-3-1a405 405 0 0 1 12.313-10.25c5.62-4.57 10.666-9.533 15.687-14.75" id="svg-layer-58" style="pointer-events: all;"/><path fill="#219A66" d="M1000 705c1.784 3.062 2.229 5.22 2.125 8.75l-.055 2.422L1002 718c-3.517 0-4.371-.824-7-3 .432-4.752 1.328-6.92 5-10" id="svg-layer-59" style="pointer-events: all;"/><path fill="#F5F8FD" d="m328 379 4 1 1 4 3-2q.039 3.093.063 6.188l.035 3.48c-.086 2.925-.42 5.495-1.098 8.332h-1l-3-9h-1l.07-1.863.055-2.45.07-2.425C330 382 330 382 328 379" id="svg-layer-60" style="pointer-events: all;"/><path fill="#FEFEFE" d="m336 520 3 2 2-1c2.125.938 2.125.938 4 2-.449 1.648-.91 3.294-1.375 4.938l-.773 2.777C342 533 342 533 340 534l1-6-5 1z" id="svg-layer-61" style="pointer-events: all;"/><path fill="#932323" d="M352 683h2l1.137 2.414c4.695 9.722 4.695 9.722 7.738 13.149C365 701 365 701 365 704l3 1v3c-4.474-1.468-5.938-4.887-8-8.812-1.897-3.546-3.664-6.785-6.25-9.887C352 687 352 687 352 683" id="svg-layer-62" style="pointer-events: all;"/><path fill="#FEFEFE" d="M376 346c16.893-.185 16.893-.185 24 1v1c-7.975 1.33-15.942 1.088-24 1z" id="svg-layer-63" style="pointer-events: all;"/><path fill="#C17438" d="M768 876c3.908 1.7 7.108 4.264 10.438 6.875l1.697 1.316q1.654 1.287 3.298 2.585a183 183 0 0 0 4.477 3.357L790 892v3l-3 1v-5l-1.687-.812c-4.557-2.34-8.612-5.069-12.625-8.25l-2.676-2.098L768 878z" id="svg-layer-64" style="pointer-events: all;"/><path fill="#C47939" d="M864 781c3.902 1.73 7.204 4.24 10.625 6.75 5.617 4.074 11.333 7.825 17.375 11.25-3 1-3 1-5.094.066-6.52-4.074-12.754-8.457-18.906-13.066l-2.32-1.613L864 783z" id="svg-layer-65" style="pointer-events: all;"/><path fill="#FEFEFE" d="m572 386 2 2 2-2v12h-2l1 4h-2l-1-2-2 1c-.2-4.28.35-7.082 2-11z" id="svg-layer-66" style="pointer-events: all;"/><path fill="#CA833C" d="m733 790 1 2a141 141 0 0 1-3.812 7.75c-3.982 7.588-3.982 7.588-5.262 11.703L724 814l-3 1-1-3 1.418-1.277c2.023-2.203 2.656-4.6 3.625-7.387 1.851-4.518 4.473-9.852 7.957-13.336" id="svg-layer-67" style="pointer-events: all;"/><path fill="#2DB281" d="M394 160h2c-.416 8.815-.87 17.396-3 26h-1c-.058-3.208-.094-6.416-.125-9.625l-.05-2.738c-.037-4.965.21-8.981 2.175-13.637" id="svg-layer-68" style="pointer-events: all;"/><path fill="#FCFDFD" d="M324 720c2.476 2.476 2.922 4.7 4 8l2 3c.125 2.688.125 2.688 0 5l-2 1-1-5-3-1c-1.687-3.562-1.687-3.562-3-7h2v2h2z" id="svg-layer-69" style="pointer-events: all;"/><path fill="#C9813B" d="M686 848h2c-1.765 4.796-4.12 9.24-6.5 13.75l-1.223 2.363-1.183 2.246-1.073 2.046C677 870 677 870 675 871c2.338-8.474 6.517-15.515 11-23" id="svg-layer-70" style="pointer-events: all;"/><path fill="#DCE9FC" d="M543 309h1v5l18-1-1 3h-18c-1-4-1-4 0-7" id="svg-layer-71" style="pointer-events: all;"/><path fill="#932323" d="M368 708c4.24 1.515 5.639 4.31 8 8l2.25 2.25L380 720v2l4 1-1 3c-5.737-4.913-11.034-9.522-15-16z" id="svg-layer-72" style="pointer-events: all;"/><path fill="#FDFDFD" d="M314 704h6c-.264 5.373-.264 5.373-1 8-2.562 2-2.562 2-5 3v-3h2v-2l-4-2 4-1z" id="svg-layer-73" style="pointer-events: all;"/><path fill="#FEFEFE" d="M592 352h3c2.195 3.293 2.204 3.75 1.688 7.438l-.301 2.308A70 70 0 0 1 595 368h-2l.035-2.484.028-3.266.035-3.234c-.083-2.55-.352-4.595-1.098-7.016" id="svg-layer-74" style="pointer-events: all;"/><path fill="#C37638" d="m718 840 2 1-15 15c0-4.064 1.53-5.052 4.25-8l2.39-2.625c2.025-2.038 4.01-3.737 6.36-5.375" id="svg-layer-75" style="pointer-events: all;"/><path fill="#C47939" d="M752 837c3.366 1.45 5.48 3.295 8 5.938 2.015 2.105 3.887 3.98 6.25 5.69L768 850v2c-4.988-2.11-9.485-5.9-13-10v-2l-3-1z" id="svg-layer-76" style="pointer-events: all;"/><path fill="#C77E3A" d="M704 830v2a956 956 0 0 1-4.91 4.07c-3.848 3.553-6.926 7.772-10.09 11.93l-1-3q2.655-2.907 5.313-5.812l1.513-1.659A1151 1151 0 0 1 699 833l1.73-1.887C702 830 702 830 704 830M781 704l3 1-2.012 1.172C769.912 713.295 769.912 713.295 766 720h-2c1.366-4.38 3.194-6.358 6.813-9.125l2.582-2.008c2.493-1.786 4.866-3.482 7.605-4.867" id="svg-layer-77" style="pointer-events: all;"/><path fill="#F9FBFD" d="M571 407c.081 1.437.14 2.874.188 4.313l.105 2.425c-.356 2.751-1.137 3.584-3.293 5.262h-1v-11c2-1 2-1 4-1" id="svg-layer-78" style="pointer-events: all;"/><path fill="#C27638" d="M792 872c3.588 1.121 6.017 2.767 8.875 5.125 2.789 2.185 4.548 3.279 8.125 3.25l3-.375c-1.187 1.563-1.187 1.563-3 3-3.397-.261-6.04-1.356-9-3v-2l-2.312-.75c-2.924-1.36-3.988-2.566-5.688-5.25" id="svg-layer-79" style="pointer-events: all;"/><path fill="#BF7037" d="M768 852c3.678 1.565 6.212 3.854 9.125 6.563 4.68 4.34 4.68 4.34 6.875 5.437v2c-4.659-1.27-7.127-3.927-10.352-7.32C772 857 772 857 769.562 855.188L768 854z" id="svg-layer-80" style="pointer-events: all;"/><path fill="#C47839" d="M768 780v2h-2v2c-1.54 1.55-1.54 1.55-3.625 3.313l-2.195 1.867L758 791l-1.867 1.57A737 737 0 0 1 752 796c1.528-3.438 3.502-6.19 6-9h2l1-3c4.457-4 4.457-4 7-4" id="svg-layer-81" style="pointer-events: all;"/><path fill="#FEFEFE" d="M295 656h4a98.4 98.4 0 0 1 1 16l-2-1c-.257-1.993-.508-3.988-.656-5.992C297 663 297 663 295 660z" id="svg-layer-82" style="pointer-events: all;"/><path fill="#F0F5FD" d="m534 374-1 10h-1l-1 6h-1c-2.666-8.591-2.666-8.591-1.055-12 3.366-4 3.366-4 5.055-4" id="svg-layer-83" style="pointer-events: all;"/><path fill="#26A471" d="M395 135h2c1.43 2.354 2.087 3.48 1.625 6.25L398 143l-2-3v3l-5 1c1.75-6.75 1.75-6.75 4-9" id="svg-layer-84" style="pointer-events: all;"/><path fill="#219A66" d="m561 826-2 4h-2v2h-2v-2l-2.75 1.063c-3.256.939-4.177.892-7.25-.063q3.153-1.258 6.313-2.5l3.55-1.406C558 826 558 826 561 826" id="svg-layer-85" style="pointer-events: all;"/><path fill="#FAFBFA" d="m599 512 3 1 .375 2.938L603 519l2 1c.407 2.322.744 4.657 1 7h-3q-1.002-3.469-2-6.937l-.578-1.999C599 513.114 599 513.114 599 512" id="svg-layer-86" style="pointer-events: all;"/><path fill="#C27638" d="M816 764c4.755.297 7.536 2.68 11.133 5.527 1.565 1.235 3.209 2.367 4.867 3.473v2c-4.026-1.342-6.037-3.037-9-6-2.282-1.452-4.615-2.716-7-4z" id="svg-layer-87" style="pointer-events: all;"/><path fill="#C47839" d="M729 837c2.561 2.134 4.913 4.396 7 7v2c-3.827-1.503-5.484-3.835-8-7-3.623-1.208-4.641-.543-8 1v-2c3.374-2.124 5.261-2.478 9-1" id="svg-layer-88" style="pointer-events: all;"/><path fill="#C37738" d="M752 862c4.124 1.662 7.066 4.623 10.25 7.625l1.68 1.563q2.04 1.9 4.07 3.812c-4.127 0-5.749-2.227-8.562-4.937-5.234-4.96-5.234-4.96-7.438-6.063z" id="svg-layer-89" style="pointer-events: all;"/><path fill="#FEFEFE" d="M489 416h4v6h-2l-1 8c-1.062-1.875-1.062-1.875-2-4l1-2c.069-1.373.085-2.75.063-4.125z" id="svg-layer-90" style="pointer-events: all;"/><path fill="#FBFCFD" d="M315 641h1l2 15h-2l-1 3c-1-1-1-1-1.125-3.812.125-3.188.125-3.188.625-5.125.732-3.022.56-5.97.5-9.063" id="svg-layer-91" style="pointer-events: all;"/><path fill="#FEFEFE" d="M400 780h6l1 2 3 2h-10z" id="svg-layer-92" style="pointer-events: all;"/><path fill="#C67C3A" d="m708 752 2 1-11 12-2-1 4.375-4.875 2.46-2.742A126 126 0 0 1 708 752" id="svg-layer-93" style="pointer-events: all;"/><path fill="#C07237" d="m824 725 2 1q-2.342 1.659-4.687 3.313l-2.637 1.863c-2.509 1.71-5.057 3.29-7.676 4.824 1.409-3.365 2.997-5.057 5.938-7.187l2.09-1.543C821 726 821 726 824 725" id="svg-layer-94" style="pointer-events: all;"/><path fill="#FBFCFD" d="M320 673h3c1.423 3.823 2.24 6.913 2 11h-3q-.504-2.187-1-4.375l-.562-2.46C320 675 320 675 320 673" id="svg-layer-95" style="pointer-events: all;"/><path fill="#DFEBFC" d="m548 374 2 3-1 3-1-1-1 3h-3v-7z" id="svg-layer-96" style="pointer-events: all;"/><path fill="#7FC85D" d="M431 271c1 2 1 2 .25 4.688-1.317 3.49-2.747 6.897-4.25 10.312h-2c1.64-5.233 3.39-10.152 6-15" id="svg-layer-97" style="pointer-events: all;"/><path fill="#FEFEFE" d="M400 784v2l-3 2-2 2-6-2c6.375-4.25 6.375-4.25 11-4M558 777v3l-4 1-1-3-4 1 1-3c3.287-1.474 5.007-.817 8 1M527 393h1q.08 3.593.125 7.188l.05 2.04c.04 4.06-.375 7.122-2.175 10.772l-2-1 1-5h2z" id="svg-layer-98" style="pointer-events: all;"/><path fill="#C07337" d="M691 784c4.968 1.552 9.179 4.51 13 8v2c-3.26-1.488-5.932-3.357-8.75-5.562l-2.422-1.88L691 785z" id="svg-layer-99" style="pointer-events: all;"/><path fill="#932323" d="M351 577h1c.324 4.367-.75 7.332-2.5 11.313l-1.406 3.238L347 594c-1.685-4.077-.17-6.83 1.438-10.75l1.433-3.547zM384 726c3.568.576 5.252 1.87 7.75 4.438l1.86 1.87C395 734 395 734 395 736c-2 0-2 0-4.375-2.187A108 108 0 0 1 384 726" id="svg-layer-100" style="pointer-events: all;"/><path fill="#ECC76B" d="M216 320c2.929.628 5.361 1.586 8 3v2h4v3c-4.557-1.519-8.317-3.954-12-7z" id="svg-layer-101" style="pointer-events: all;"/><path fill="#8BCF6C" d="M439 257h2c-.605 3.39-1.913 5.304-4 8l-1 3-3 1c1.316-4.604 3.092-8.183 6-12" id="svg-layer-102" style="pointer-events: all;"/><path fill="#2DB281" d="m378 181 2 2c-.023 2.164-.023 2.164-.375 4.625l-.336 2.477L379 192h-2a758 758 0 0 1-.062-4.937l-.036-2.778C377 182 377 182 378 181" id="svg-layer-103" style="pointer-events: all;"/><path fill="#932323" d="M410 746c9.455 2.182 9.455 2.182 12 6-4.988-.475-8.023-1.97-12-5z" id="svg-layer-104" style="pointer-events: all;"/><path fill="#FBFCFD" d="M314 538h2l1 2 3 1-2 3c-3.125.188-3.125.188-6 0z" id="svg-layer-105" style="pointer-events: all;"/><path fill="#FEFEFE" d="M524 416h2l1 3 6 1v2c-6.152.098-6.152.098-8 0-1-1-1-1-1.062-3.562z" id="svg-layer-106" style="pointer-events: all;"/><path fill="#C67D3A" d="M710 800h2a96 96 0 0 1 4.125 5l2.195 2.813L720 810l-1 2q-2.258-2.43-4.5-4.875l-2.531-2.742C710 802 710 802 710 800" id="svg-layer-107" style="pointer-events: all;"/><path fill="#219A66" d="m640 976-1.875.875C636 978 636 978 634 980l3 3-1 2-5-5 1-3c2.928-.976 4.956-1.082 8-1" id="svg-layer-108" style="pointer-events: all;"/><path fill="#C07237" d="M832 775c6.923 4.462 6.923 4.462 9 7v2c-3.82-1.556-6.26-3.956-9-7z" id="svg-layer-109" style="pointer-events: all;"/><path fill="#FEFEFE" d="M314 621c2.68 4.019 2.156 6.242 2 11h-3l1-8-2-1z" id="svg-layer-110" style="pointer-events: all;"/><path fill="#92D03C" d="M999 708h1v8l-4-2c1.875-4.875 1.875-4.875 3-6" id="svg-layer-111" style="pointer-events: all;"/><path fill="#219A66" d="M691 672h1v7l3 1-5 3c-1.417-4.25-.193-6.719 1-11" id="svg-layer-112" style="pointer-events: all;"/><path fill="#FEFEFE" d="M326 502h1c.222 1.623.427 3.249.625 4.875l.352 2.742L328 512l-2 2v-2h-2z" id="svg-layer-113" style="pointer-events: all;"/><path fill="#ECC66A" d="M199 289h2c-1.394 4.435-3.606 6.874-7 10 0-3.344.475-4.068 2.375-6.687l1.336-1.887z" id="svg-layer-114" style="pointer-events: all;"/><path fill="#C57A39" d="M738 848c3.297 1.099 4.047 1.946 6.188 4.563l1.605 1.94L747 856c-3 0-3 0-4.605-1.242l-1.582-1.633-1.606-1.617C738 850 738 850 738 848" id="svg-layer-115" style="pointer-events: all;"/><path fill="#BC6B35" d="M696 812c4.538 2.269 5.947 4.099 9 8l-3 1zM749 771h2c-1.491 3.795-3.757 5.61-7 8v-3l1.938-.812C748 774 748 774 749 771" id="svg-layer-116" style="pointer-events: all;"/><path fill="#F0D074" d="m294 363 2 2c-.375 2.125-.375 2.125-1 4l-6-3v-2l5 1z" id="svg-layer-117" style="pointer-events: all;"/><path fill="#BB6935" d="M841 784c3.795 1.491 5.61 3.757 8 7-3.786-.54-5.554-2.117-8-5z" id="svg-layer-118" style="pointer-events: all;"/><path fill="#FEFEFE" d="M338 529c.891 2.674 1.477 5.237 2 8h-2l-2 3c-.25-7.625-.25-7.625 2-11" id="svg-layer-119" style="pointer-events: all;"/><path fill="#FCE684" d="M217 295h2l-.875 1.563c-1.413 3.06-2.25 6.186-3.125 9.437-1.187-1.625-1.187-1.625-2-4 2.1-5.1 2.1-5.1 4-7" id="svg-layer-120" style="pointer-events: all;"/><path fill="#6ABE66" d="m485 210 2 7-1.125-1.562C484 214 484 214 480.813 214.313L478 215c4.75-5 4.75-5 7-5" id="svg-layer-121" style="pointer-events: all;"/><path fill="#FEFEFE" d="M414 800h8l1 4-9-3zM567 771v2h-7l-1 3h-2v-3c3.508-1.604 6.144-2.22 10-2" id="svg-layer-122" style="pointer-events: all;"/><path fill="#EAF1FC" d="M569 396h1c.925 4.716 1.23 7.673-1 12h-1z" id="svg-layer-123" style="pointer-events: all;"/><path fill="#CA833B" d="M783 888c2.915 1.074 4.778 1.778 7 4v3l-3 1v-5l-4-2z" id="svg-layer-124" style="pointer-events: all;"/><path fill="#FCFCFD" d="M368 749h2v2h3l-1 2-9-1v-1h5z" id="svg-layer-125" style="pointer-events: all;"/><path fill="#932323" d="M400 740c4.833.414 6.827 2.464 10 6-3.995-1.37-6.8-3.257-10-6" id="svg-layer-126" style="pointer-events: all;"/><path fill="#219A66" d="M1011 726c4.75.75 4.75.75 7 3h-2l-1 2c-2-1.375-2-1.375-4-3z" id="svg-layer-127" style="pointer-events: all;"/><path fill="#FEFEFE" d="M332 720h4v4h-4zM348 496l3 1v5l-3 1z" id="svg-layer-128" style="pointer-events: all;"/><path fill="#EAC46C" d="m261 230 3 1c-2.312 2.063-2.312 2.063-5 4l-3-1c2.313-2.062 2.313-2.062 5-4" id="svg-layer-129" style="pointer-events: all;"/><path fill="#C07237" d="M686 848h2c-1.074 2.915-1.778 4.778-4 7l-1-2c1.313-2.625 1.313-2.625 3-5" id="svg-layer-130" style="pointer-events: all;"/><path fill="#C1883F" d="m768 751 3 2-1 5h-2z" id="svg-layer-131" style="pointer-events: all;"/><path fill="#DEEAFC" d="M571 385h1c.688 3.313.688 3.313 1 7l-3 3z" id="svg-layer-132" style="pointer-events: all;"/><path fill="#BF7037" d="M738 820h2c1.063 1.813 1.063 1.813 2 4l-1 3c-3-3.625-3-3.625-3-7" id="svg-layer-133" style="pointer-events: all;"/><path fill="#C37739" d="m724 809 1 2-1 3-3 1-1-3z" id="svg-layer-134" style="pointer-events: all;"/><path fill="#FBFCFD" d="M455 790v1c-3.375.125-3.375.125-7 0l-2-2c3.2-1.6 5.723-.032 9 1" id="svg-layer-135" style="pointer-events: all;"/><path fill="#BA6835" d="m784 744 7 3v1h-5z" id="svg-layer-136" style="pointer-events: all;"/><path fill="#CC873D" d="m824 725 2 1-6 4-2-1c2.052-2.248 3.007-3.002 6-4" id="svg-layer-137" style="pointer-events: all;"/><path fill="#BA6835" d="m768 713 1 2c-1.312 2.625-1.312 2.625-3 5h-2c1.074-2.915 1.778-4.778 4-7" id="svg-layer-138" style="pointer-events: all;"/><path fill="#FEFEFE" d="m336 707 3 3-2 4h-1v-5l-2-1z" id="svg-layer-139" style="pointer-events: all;"/><path fill="#F4F8FD" d="m328 379 4 1v8h-1l-.937-3.375C329 381 329 381 328 379" id="svg-layer-140" style="pointer-events: all;"/><path fill="#FEFEFE" d="m550 780 4 1-1 4-3-1z" id="svg-layer-141" style="pointer-events: all;"/><path fill="#B96534" d="M696 765h2c-.812 2.438-.812 2.438-2 5l-3 1c1.875-4.875 1.875-4.875 3-6" id="svg-layer-142" style="pointer-events: all;"/><path fill="#FEFEFE" d="m361 746 3 3-3 3c-1.125-3.75-1.125-3.75 0-6M314 612l2 4-3 3c-.625-2.375-.625-2.375-1-5z" id="svg-layer-143" style="pointer-events: all;"/><path fill="#BC6B35" d="m859 775 5 5h-3l-2-2z" id="svg-layer-144" style="pointer-events: all;"/><path fill="#FEFEFE" d="M332 475c2 2 2 2 2 5h-3z" id="svg-layer-145" style="pointer-events: all;"/><path fill="#EDC96D" d="m254 235 2 1a91 91 0 0 1-4 4h-2c1-3 1-3 4-5" id="svg-layer-146" style="pointer-events: all;"/><path fill="#BA6734" d="M748 857c2 1.375 2 1.375 4 3v2l-4-2z" id="svg-layer-147" style="pointer-events: all;"/><path fill="#C57B39" d="m703 856 1 3-4 2c1.875-3.875 1.875-3.875 3-5" id="svg-layer-148" style="pointer-events: all;"/><path fill="#FEFEFE" d="M361 741h2l1 3-4 1z" id="svg-layer-149" style="pointer-events: all;"/><path fill="#932323" d="M396 736h3l1 4-4-2z" id="svg-layer-150" style="pointer-events: all;"/><path fill="#EAC46E" d="m209 316 5 1v2c-1.937-.375-1.937-.375-4-1z" id="svg-layer-151" style="pointer-events: all;"/><path fill="#CA843C" d="m693 875 1 3-1 2h-2c.875-3.875.875-3.875 2-5" id="svg-layer-152" style="pointer-events: all;"/><path fill="#BE6E36" d="m732 842 4 2v2l-4-2z" id="svg-layer-153" style="pointer-events: all;"/><path fill="#FEFEFE" d="M350 757h2l1 4h-3l-1-3zM363 745c1.938.313 1.938.313 4 1l1 3h-3z" id="svg-layer-154" style="pointer-events: all;"/><path fill="#BC6B35" d="M858 800c1.938.375 1.938.375 4 1l1 2c-1.937-.375-1.937-.375-4-1z" id="svg-layer-155" style="pointer-events: all;"/><path fill="#B55F32" d="M903 789h2l-2 5c-.562-1.937-.562-1.937-1-4z" id="svg-layer-156" style="pointer-events: all;"/><path fill="#F2D274" d="M224 325h4v3l-4-2zM251 321v3l-3 1 1-3z" id="svg-layer-157" style="pointer-events: all;"/><path fill="#EDC96D" d="M217 295h2l-2 4-2-2z" id="svg-layer-158" style="pointer-events: all;"/><path fill="#FEFEFE" d="m317 534 2 1-1 3-2-1zM308 557l3 3h-3z" id="svg-layer-159" style="pointer-events: all;"/><path fill="#FCE684" d="m229 322 2 2-3 1z" id="svg-layer-160" style="pointer-events: all;"/></svg>